<?xml version="1.0" standalone="no"?>
<!DOCTYPE svg PUBLIC "-//W3C//DTD SVG 20010904//EN"
 "http://www.w3.org/TR/2001/REC-SVG-20010904/DTD/svg10.dtd">
<svg version="1.0" xmlns="http://www.w3.org/2000/svg"
 width="1440.000000pt" height="960.000000pt" viewBox="0 0 1440.000000 960.000000"
 preserveAspectRatio="xMidYMid meet">

<g transform="translate(0.000000,960.000000) scale(0.100000,-0.100000)"
fill="#000000" stroke="none">
<path d="M948 9593 c6 -2 18 -2 25 0 6 3 1 5 -13 5 -14 0 -19 -2 -12 -5z"/>
<path d="M1080 9597 c5 -5 142 -15 315 -22 136 -6 402 -22 503 -31 55 -5 82
-3 82 4 0 6 -38 12 -92 16 -51 3 -174 11 -273 17 -199 13 -543 23 -535 16z"/>
<path d="M3438 9593 c12 -2 30 -2 40 0 9 3 -1 5 -23 4 -22 0 -30 -2 -17 -4z"/>
<path d="M3520 9597 c8 -8 331 -35 450 -38 25 -1 59 -5 75 -10 17 -5 91 -11
165 -13 74 -3 143 -5 153 -5 10 -1 15 -5 12 -11 -3 -5 1 -10 9 -10 9 0 16 5
16 10 0 13 27 13 32 0 2 -5 48 -11 106 -11 61 -1 113 -7 127 -15 17 -9 81 -14
197 -15 95 -1 178 -6 184 -11 10 -7 36 -8 129 -6 69 2 134 -5 129 -13 -7 -12
27 -11 46 1 8 5 17 5 20 0 6 -10 103 -19 295 -26 166 -5 175 -6 192 -17 7 -4
51 -3 99 3 74 9 89 9 104 -5 19 -17 40 -20 40 -5 0 6 7 10 15 10 8 0 15 -4 15
-9 0 -5 9 -11 19 -14 15 -3 20 2 24 22 3 14 4 27 3 29 -4 3 -346 28 -586 42
-91 6 -228 15 -305 20 -77 6 -223 15 -325 20 -102 6 -241 15 -310 20 -69 5
-213 14 -320 20 -107 6 -258 16 -335 22 -150 12 -482 22 -475 15z"/>
<path d="M5248 9593 c7 -3 16 -2 19 1 4 3 -2 6 -13 5 -11 0 -14 -3 -6 -6z"/>
<path d="M5283 9594 c3 -4 57 -8 119 -11 114 -4 157 -7 258 -17 30 -3 116 -8
190 -11 74 -3 158 -7 185 -10 161 -16 147 -17 143 13 -3 25 -7 27 -68 33 -85
9 -835 11 -827 3z"/>
<path d="M7204 9578 c3 -13 6 -26 6 -30 0 -5 5 -8 10 -8 6 0 10 14 10 30 0 21
-5 30 -16 30 -12 0 -15 -6 -10 -22z"/>
<path d="M7248 9569 c3 -22 7 -27 13 -18 13 21 11 49 -4 49 -9 0 -12 -10 -9
-31z"/>
<path d="M7288 9593 c7 -3 16 -2 19 1 4 3 -2 6 -13 5 -11 0 -14 -3 -6 -6z"/>
<path d="M7373 9594 c3 -3 21 -7 40 -9 19 -2 47 -11 61 -20 28 -19 46 -13 46
16 0 17 -7 19 -77 19 -42 0 -74 -3 -70 -6z"/>
<path d="M7596 9438 c4 -145 13 -200 35 -218 11 -9 31 -52 26 -56 -2 -2 -30
-1 -63 3 -71 10 -137 5 -129 -8 4 -5 1 -9 -6 -9 -16 0 -81 41 -75 47 3 3 16
-1 28 -9 25 -16 48 -13 48 7 0 13 -45 27 -97 29 -32 1 -45 -16 -23 -29 14 -8
-6 -35 -26 -35 -7 0 -16 -10 -20 -22 -6 -20 -8 -20 -19 -5 -10 14 -10 25 1 55
7 20 13 62 14 93 0 40 4 59 14 62 10 4 17 -4 22 -26 6 -27 8 -29 19 -14 16 22
38 21 105 -3 59 -22 70 -17 70 32 l0 26 -92 4 c-133 5 -160 1 -156 -25 4 -30
-19 -32 -24 -2 -3 14 -2 25 2 25 5 0 6 9 3 20 -7 25 -15 25 -31 0 -7 -12 -17
-18 -22 -15 -5 3 -11 1 -14 -4 -4 -5 3 -12 14 -16 11 -3 20 -15 20 -26 0 -13
7 -19 21 -19 17 0 20 -5 17 -37 -3 -37 -4 -38 -48 -43 -25 -3 -44 -8 -42 -13
4 -12 -31 -59 -37 -49 -3 6 -17 11 -31 12 -51 4 -60 1 -57 -22 1 -15 -3 -23
-13 -23 -8 0 -14 8 -14 18 1 9 -2 17 -7 17 -5 0 -9 9 -9 21 0 18 5 21 33 17
26 -3 33 0 34 14 1 9 -6 20 -16 23 -9 3 -125 12 -257 20 -131 9 -291 20 -354
25 -63 6 -125 8 -137 5 -31 -7 -53 4 -54 29 -1 17 -2 15 -9 -8 -5 -16 -6 -42
-3 -59 5 -27 7 -28 18 -13 14 18 25 19 200 12 17 0 34 -5 38 -11 6 -6 10 -6
14 3 7 17 26 15 19 -3 -3 -9 0 -15 9 -15 8 0 15 5 15 10 0 6 9 10 21 10 11 0
17 -4 14 -10 -7 -11 50 -14 210 -11 50 0 95 -3 100 -7 6 -4 15 -26 21 -49 11
-41 10 -43 -10 -43 -12 0 -26 -4 -33 -8 -7 -4 -52 -4 -100 -1 -48 4 -144 10
-213 14 -69 4 -172 11 -229 16 -58 5 -107 7 -109 4 -2 -2 -1 -17 3 -32 5 -20
9 -24 14 -13 7 18 41 18 97 2 22 -6 79 -11 127 -10 47 1 90 -1 93 -5 4 -4 13
-2 21 4 10 9 17 8 28 -1 8 -7 22 -10 30 -6 8 3 15 2 15 -3 0 -13 44 -22 51
-10 4 6 9 7 12 2 9 -14 -4 -26 -48 -48 -22 -11 -46 -27 -55 -36 -14 -15 -30
-15 -175 -3 -231 19 -228 19 -219 -8 9 -31 14 -35 24 -18 7 11 11 11 24 1 15
-13 109 -11 122 2 4 4 13 7 21 7 24 0 3 -53 -36 -88 -34 -30 -40 -32 -101 -30
-73 3 -68 12 -53 -84 3 -26 0 -42 -10 -53 -12 -12 -13 -21 -5 -49 6 -19 8 -45
4 -60 -5 -22 -10 -25 -35 -20 -18 4 -38 0 -55 -11 -22 -15 -41 -16 -124 -11
-53 4 -115 9 -137 11 -22 3 -116 9 -210 15 -348 21 -687 41 -940 55 -143 8
-334 19 -425 25 -91 5 -293 17 -450 25 -157 8 -298 17 -315 20 -16 2 -93 7
-170 10 -201 8 -498 26 -505 30 -3 2 -82 7 -176 10 -93 4 -225 11 -294 16 -69
5 -213 14 -320 19 -107 6 -312 17 -455 26 -143 9 -341 19 -440 24 -99 5 -261
13 -360 19 -99 6 -268 16 -375 22 -107 6 -246 14 -308 18 -111 6 -112 6 -112
-16 0 -21 5 -23 53 -24 131 -3 257 -8 307 -13 30 -4 165 -11 300 -16 135 -5
292 -12 350 -15 140 -6 497 -18 535 -17 25 1 27 0 10 -8 -13 -5 16 -7 75 -5
52 2 178 -3 280 -10 213 -16 653 -39 753 -39 37 -1 71 -6 75 -11 4 -6 43 -11
87 -13 44 -2 118 -5 165 -7 100 -3 350 -16 400 -19 19 -1 114 -6 210 -10 96
-4 207 -11 245 -16 69 -9 297 -24 345 -23 14 0 61 -6 104 -13 47 -9 82 -11 85
-5 9 15 101 1 101 -15 0 -11 25 -14 113 -16 182 -2 227 -5 322 -18 90 -14 165
-16 240 -8 22 2 55 -2 74 -9 18 -7 72 -13 120 -13 58 0 81 -3 71 -10 -12 -7
-10 -9 7 -7 12 0 19 5 16 11 -4 5 13 7 43 2 64 -9 361 -34 444 -38 l66 -3 -6
-40 -5 -40 -70 1 c-77 2 -393 19 -635 34 -85 5 -236 14 -335 20 -99 5 -292 17
-430 25 -137 9 -374 22 -525 30 -469 26 -989 55 -1135 64 -77 5 -141 8 -143 7
-1 -2 1 -14 6 -26 6 -15 11 -19 16 -12 5 9 40 10 124 6 64 -3 155 -7 202 -9
86 -3 167 -9 365 -26 61 -5 150 -10 199 -10 54 -1 83 -5 75 -10 -10 -6 -4 -9
19 -9 17 0 32 5 32 11 0 5 5 7 10 4 6 -4 57 -8 113 -10 56 -2 131 -8 167 -14
36 -6 124 -11 195 -11 88 0 125 -3 115 -10 -13 -8 -13 -10 2 -10 9 0 18 5 20
11 3 8 10 9 23 1 33 -17 118 -28 160 -20 22 4 51 5 65 3 14 -2 57 -7 95 -10
39 -4 86 -9 105 -11 19 -2 60 -6 90 -9 30 -2 96 -8 145 -13 50 -5 97 -10 105
-10 8 -1 50 -4 94 -8 53 -4 76 -3 72 4 -4 7 10 9 41 6 26 -2 50 -9 54 -16 5
-8 15 -6 36 7 24 16 26 16 14 2 -11 -14 -11 -17 0 -18 8 0 61 -2 119 -4 58 -2
119 -8 136 -13 23 -7 35 -7 43 1 9 9 14 8 20 -2 6 -10 13 -10 28 -2 16 8 24 6
38 -9 25 -27 33 -25 48 13 14 32 14 32 22 8 8 -25 -13 -51 -42 -51 -7 0 -13
-11 -13 -24 0 -24 -29 -44 -47 -33 -5 3 -82 8 -173 11 -91 4 -228 11 -305 17
-77 5 -261 16 -410 24 -148 8 -337 19 -420 24 -82 6 -213 13 -290 16 -77 3
-198 10 -270 16 -71 5 -269 16 -440 24 -170 9 -325 18 -345 20 -68 9 -450 26
-460 20 -5 -3 -6 -13 -3 -21 3 -9 9 -11 12 -6 4 6 29 6 65 1 33 -4 114 -8 180
-8 67 -1 135 -5 152 -10 17 -5 91 -10 165 -10 74 -1 152 -6 174 -11 22 -5 78
-9 125 -8 47 0 108 -3 135 -6 28 -4 93 -8 145 -10 52 -1 104 -7 115 -13 12 -6
72 -9 150 -7 72 2 146 1 165 -3 33 -6 34 -7 10 -14 -21 -6 -20 -7 13 -8 23 -1
36 3 32 9 -9 14 38 13 70 -2 19 -9 28 -9 33 -1 4 6 20 9 37 5 26 -4 27 -6 10
-12 -11 -5 23 -6 75 -3 59 2 90 1 82 -5 -10 -6 -3 -11 24 -15 21 -4 40 -4 43
-2 2 3 -3 5 -12 5 -10 0 -17 5 -17 11 0 12 37 3 58 -14 15 -12 212 -22 212
-10 0 4 22 8 49 8 27 0 47 -3 45 -7 -5 -7 83 -11 224 -10 45 1 70 -3 67 -9 -4
-5 -11 -7 -16 -4 -5 4 -16 2 -25 -3 -31 -17 5 -24 38 -8 36 18 94 21 104 5 3
-6 16 -8 27 -5 12 3 26 1 31 -3 20 -16 127 -29 167 -20 22 5 55 7 74 5 23 -3
34 0 32 7 -1 7 10 13 25 15 24 3 26 0 26 -35 0 -92 -21 -95 -468 -68 -129 8
-289 17 -355 20 -66 3 -223 13 -350 20 -126 8 -358 22 -515 30 -424 22 -992
53 -1185 65 -229 13 -278 13 -273 -2 3 -8 43 -13 124 -15 65 -2 169 -7 229
-12 61 -5 173 -12 250 -15 152 -7 227 -11 326 -20 35 -3 134 -8 219 -12 87 -3
158 -10 161 -16 4 -7 8 -7 10 0 4 11 244 -1 299 -14 14 -4 45 -6 70 -6 37 1
41 -1 20 -8 -19 -6 -11 -8 35 -8 45 -1 55 2 40 9 -15 7 -11 8 15 4 19 -3 87
-8 150 -11 66 -3 118 -10 122 -17 7 -12 48 -18 48 -6 0 4 -3 9 -7 12 -5 2 -2
2 5 0 8 -1 22 -3 32 -3 10 0 25 -7 34 -15 13 -13 28 -14 111 -4 94 11 230 5
220 -10 -10 -18 156 -22 203 -6 8 3 18 2 24 -1 5 -4 48 -6 94 -6 64 0 84 -3
84 -14 0 -8 6 -11 15 -8 8 3 20 2 27 -2 7 -5 25 -7 40 -5 27 2 28 1 28 -43 0
-67 25 -64 -415 -36 -82 5 -238 14 -345 20 -107 6 -265 15 -350 21 -85 5 -243
14 -350 19 -214 10 -600 31 -1010 55 -497 29 -575 33 -578 30 -2 -2 -1 -13 3
-25 5 -15 12 -19 23 -15 10 4 46 7 82 6 36 -1 115 -2 175 -2 99 0 108 -1 91
-14 -19 -14 -18 -15 13 -15 18 0 30 4 26 10 -4 6 17 8 57 5 35 -2 119 -7 188
-10 69 -3 145 -8 170 -11 25 -2 110 -7 190 -10 80 -3 146 -9 147 -13 2 -3 37
-5 78 -3 46 2 81 -1 90 -8 10 -8 14 -8 17 2 4 10 8 10 22 -1 11 -9 20 -11 26
-5 6 6 34 7 68 3 31 -4 103 -8 160 -8 58 -1 101 -5 98 -10 -3 -5 -22 -9 -42
-9 -19 0 -38 -3 -42 -7 -4 -3 18 -5 48 -4 30 1 74 -1 98 -5 29 -5 42 -4 42 4
0 6 -4 9 -8 6 -4 -2 -14 0 -22 5 -17 10 99 5 138 -7 14 -4 22 -2 22 6 0 7 8 9
20 5 11 -4 53 -8 93 -10 92 -4 147 -14 147 -27 0 -6 6 -5 15 2 18 15 268 5
273 -11 2 -5 19 -7 38 -3 22 4 34 2 34 -5 0 -7 19 -11 48 -10 45 1 45 1 14 9
-52 12 -47 18 10 12 32 -3 58 -11 65 -21 10 -15 12 -14 18 2 4 9 13 17 21 17
8 0 11 -6 8 -15 -7 -17 21 -21 31 -5 9 15 41 12 55 -5 16 -19 39 -19 61 1 19
17 39 11 39 -11 0 -8 8 -18 17 -24 17 -9 16 -11 -1 -30 -10 -11 -24 -18 -30
-14 -6 3 -8 3 -4 -2 14 -15 -27 -34 -72 -35 -24 0 -92 4 -150 10 -58 5 -328
21 -600 35 -272 14 -598 32 -725 40 -126 8 -329 20 -450 25 -121 6 -299 15
-395 21 -354 20 -554 28 -559 23 -3 -2 0 -9 7 -16 7 -7 60 -11 149 -11 76 1
142 -2 147 -5 5 -3 66 -7 135 -9 69 -3 127 -8 129 -13 2 -4 32 -5 67 -2 47 3
69 1 82 -9 13 -11 15 -11 9 -1 -7 11 5 13 60 8 120 -11 155 -13 349 -21 177
-7 233 -10 278 -14 10 0 16 -5 12 -10 -3 -6 4 -8 17 -4 28 6 28 6 158 0 58 -3
138 -5 178 -6 83 -1 98 -16 20 -20 -29 -1 -55 -5 -58 -7 -7 -7 128 1 160 10
22 6 22 5 5 -4 -18 -9 -17 -10 5 -4 48 13 449 2 473 -13 4 -2 5 -9 2 -14 -4
-5 -1 -9 4 -9 6 0 11 5 11 11 0 15 344 2 438 -17 16 -3 22 -10 18 -19 -3 -9 1
-15 10 -15 9 0 12 5 8 13 -6 9 -4 9 8 -1 14 -11 17 -10 23 7 12 38 20 22 20
-37 -1 -54 -2 -57 -28 -60 -27 -3 -35 -16 -18 -26 10 -6 -3 -86 -18 -115 -6
-10 -18 -22 -27 -25 -13 -5 -15 -9 -6 -18 7 -7 12 -38 12 -69 0 -45 -4 -61
-18 -71 -13 -9 -19 -28 -21 -66 -2 -56 -13 -96 -29 -106 -5 -3 -6 -27 -1 -56
8 -52 12 -164 9 -302 -1 -44 3 -79 9 -83 14 -8 14 -118 0 -132 -8 -8 -8 -17 0
-31 12 -23 9 -85 -5 -88 -5 -1 -55 -8 -112 -15 -57 -7 -105 -16 -108 -21 -3
-4 -5 -49 -5 -99 0 -84 2 -94 24 -118 32 -33 53 -76 61 -124 7 -37 6 -38 -14
-27 -12 6 -24 10 -26 7 -5 -5 -8 -44 -25 -330 -8 -142 -8 -196 1 -220 26 -73
116 -247 127 -247 17 0 20 20 11 70 -5 25 -7 101 -3 170 l6 125 -21 -25 -22
-25 6 40 c3 22 6 48 6 58 0 25 20 21 21 -5 1 -13 5 -5 9 17 l7 40 2 -34 c1
-33 2 -34 16 -15 8 10 15 32 15 49 0 21 3 26 11 18 15 -15 23 -259 9 -268 -5
-3 -10 -1 -10 5 0 6 -4 8 -10 5 -14 -9 -13 -175 1 -175 6 0 19 5 29 10 26 14
31 1 35 -78 1 -37 6 -101 10 -143 7 -68 5 -78 -11 -90 -11 -8 -20 -28 -21 -46
-2 -28 2 -34 23 -39 17 -4 23 -11 19 -22 -3 -8 0 -21 7 -29 12 -15 22 -75 37
-228 5 -49 16 -103 25 -120 9 -16 16 -50 16 -74 0 -25 4 -58 9 -75 6 -17 15
-58 22 -91 7 -33 18 -71 24 -85 7 -14 15 -42 18 -63 3 -21 20 -68 37 -104 18
-37 34 -83 38 -102 3 -20 13 -44 23 -55 10 -10 21 -33 25 -50 4 -17 13 -40 21
-52 7 -12 10 -29 7 -39 -5 -12 0 -23 16 -35 26 -20 21 -57 -6 -46 -8 3 -39 -8
-69 -25 -59 -33 -71 -44 -56 -53 5 -4 12 -2 16 4 9 14 43 12 103 -5 41 -12 53
-21 58 -41 9 -33 0 -39 -28 -20 -34 24 -85 21 -94 -6 -7 -24 21 -52 43 -44 7
3 27 -1 45 -9 28 -12 29 -14 10 -15 -15 0 -26 -9 -32 -26 -8 -19 -14 -23 -23
-16 -17 15 -98 42 -124 42 -13 0 -23 -5 -23 -12 0 -13 -59 -68 -72 -68 -4 0
-15 -14 -23 -30 -9 -17 -21 -28 -27 -24 -6 4 -9 1 -6 -6 6 -18 28 -25 28 -9 0
22 56 66 92 72 25 4 45 0 67 -14 17 -10 45 -19 62 -19 24 0 30 -4 27 -18 -4
-18 -24 -20 -90 -7 -34 7 -38 5 -49 -18 -6 -14 -22 -28 -35 -31 -27 -7 -31
-28 -9 -50 19 -18 19 -55 1 -62 -20 -8 -27 -42 -9 -48 25 -10 31 -7 35 17 4
26 36 34 67 17 31 -16 28 -44 -3 -36 -27 7 -38 -9 -25 -35 7 -14 0 -18 -46
-24 -30 -3 -55 -11 -55 -16 0 -5 3 -8 8 -7 4 2 8 -1 9 -7 2 -5 -3 -10 -10 -10
-15 0 -57 -27 -57 -37 0 -4 26 -15 58 -24 52 -15 82 -35 82 -56 0 -10 -62 -10
-118 1 -39 8 -42 7 -37 -10 4 -11 2 -19 -4 -19 -6 0 -11 -5 -11 -11 0 -6 8 -8
18 -5 10 4 6 -4 -11 -19 -15 -14 -37 -25 -48 -25 -13 0 -19 -7 -19 -24 0 -21
5 -24 45 -24 37 -1 45 2 45 17 0 10 6 23 13 29 19 15 133 30 145 18 2 -3 1
-14 -3 -26 l-7 -22 -15 22 c-12 16 -18 19 -27 10 -8 -8 -7 -15 7 -24 25 -19
21 -29 -8 -22 -19 5 -31 1 -48 -17 -29 -30 -70 -47 -114 -47 -30 0 -35 -3 -30
-19 3 -12 -4 -28 -19 -42 -32 -30 -30 -39 5 -39 21 0 37 9 55 33 23 28 28 31
46 19 11 -6 27 -12 35 -12 29 0 15 -30 -21 -45 -29 -12 -35 -19 -31 -35 3 -12
-2 -25 -12 -33 -10 -6 -20 -21 -24 -32 -5 -15 -1 -13 18 8 21 24 28 27 40 17
18 -15 20 -57 3 -63 -28 -10 0 -14 45 -8 36 6 47 5 47 -5 0 -21 -33 -33 -90
-35 -33 -2 -54 -7 -57 -16 -3 -7 -9 -13 -15 -13 -5 0 -6 5 -3 10 3 6 -1 13 -9
16 -16 6 -23 44 -8 44 4 0 8 9 9 20 2 24 -22 27 -31 4 -3 -9 -6 -32 -6 -53 0
-33 -5 -41 -41 -64 -22 -15 -46 -27 -52 -27 -5 0 -7 -3 -4 -6 11 -11 137 -12
137 -1 0 13 100 1 114 -13 7 -7 7 -16 -2 -28 -7 -9 -17 -28 -22 -41 -8 -17
-15 -21 -28 -15 -28 12 -67 10 -65 -3 2 -7 -8 -20 -22 -29 -35 -23 -31 -34 10
-34 26 0 39 6 51 25 19 29 31 32 36 10 2 -12 22 -17 83 -20 108 -6 134 -10
148 -24 17 -17 -18 -41 -60 -41 -23 0 -33 -5 -33 -15 0 -8 9 -15 20 -15 30 0
36 -27 13 -53 -11 -12 -18 -28 -16 -35 3 -7 2 -25 -2 -40 -6 -23 -8 -25 -16
-9 -14 24 -29 21 -29 -6 0 -21 -5 -24 -43 -24 -26 0 -64 -10 -93 -24 -36 -18
-66 -24 -114 -24 l-65 0 -23 -45 c-27 -55 -69 -79 -138 -80 -28 0 -59 -6 -70
-15 -25 -19 -64 -19 -64 0 0 8 13 21 30 30 16 8 34 25 41 36 9 18 18 21 55 16
38 -4 44 -2 44 14 0 10 13 40 30 66 29 46 40 93 21 93 -5 0 -13 -9 -16 -20 -9
-28 -21 -17 -29 26 -8 41 -29 41 -34 0 -2 -16 1 -26 6 -22 16 9 32 -18 25 -43
-4 -18 -8 -20 -15 -9 -7 9 -8 8 -4 -6 4 -10 2 -24 -4 -31 -6 -7 -9 -19 -8 -26
2 -9 -15 -16 -51 -22 -30 -5 -61 -15 -68 -23 -8 -8 -18 -14 -22 -14 -5 0 -11
-18 -15 -40 -9 -59 -48 -71 -48 -15 l0 25 -22 -20 c-70 -68 -91 -81 -123 -76
-18 2 -33 1 -33 -5 0 -5 5 -9 11 -9 6 0 9 -15 7 -37 -4 -36 -6 -38 -35 -35
-18 2 -50 -2 -73 -8 -53 -14 -61 -8 -41 34 16 33 17 34 66 29 l50 -5 0 61 c0
33 -3 61 -7 61 -4 0 -14 -13 -23 -30 l-15 -30 -74 6 -73 7 -7 -36 c-5 -26 -2
-44 10 -62 16 -24 15 -25 -4 -25 -26 0 -42 21 -36 47 3 11 -1 27 -11 36 -13
14 -15 26 -9 64 5 27 7 51 6 54 0 3 9 31 22 62 22 56 106 154 201 238 22 19
52 50 66 69 40 53 89 156 89 187 0 15 9 43 20 61 13 22 20 50 20 86 0 52 14
102 46 159 8 15 13 35 10 45 -6 19 17 77 35 87 5 4 9 23 9 43 0 21 9 48 20 62
11 14 20 35 20 47 0 12 3 23 8 25 16 7 56 74 63 107 17 80 27 111 46 138 11
15 23 41 27 57 4 16 16 41 27 54 10 14 19 30 19 37 0 26 73 165 86 165 8 0 14
10 14 23 0 12 9 33 20 47 11 14 20 33 20 42 0 9 15 36 33 60 25 32 34 55 35
87 1 23 4 47 8 52 8 13 -28 11 -104 -7 -124 -28 -214 -55 -241 -71 -66 -41
-107 -69 -113 -79 -4 -6 -27 -33 -50 -59 -24 -26 -51 -61 -60 -76 -27 -44 -86
-69 -165 -69 -72 0 -138 -14 -163 -34 -23 -19 -246 -111 -330 -136 -41 -12
-95 -30 -120 -40 -79 -31 -113 -39 -201 -49 -47 -5 -113 -19 -145 -30 -56 -18
-73 -19 -289 -11 -127 5 -403 14 -614 20 -211 7 -392 13 -402 15 -47 9 -370 7
-381 -3 -12 -9 -59 -18 -125 -25 -33 -3 -31 -37 2 -37 16 0 25 -6 25 -15 0 -8
9 -15 19 -15 12 0 23 -9 27 -22 11 -37 36 -70 44 -59 3 6 25 12 48 13 31 1 48
-4 65 -20 23 -21 36 -23 328 -32 694 -22 717 -22 749 2 16 12 36 18 45 14 19
-7 11 -26 -11 -26 -9 0 -46 -14 -82 -31 -45 -21 -74 -28 -91 -24 -14 4 -105 8
-201 10 -485 10 -707 18 -722 26 -10 6 -19 5 -23 -1 -3 -5 -46 -10 -96 -10
-72 0 -89 -3 -89 -15 0 -8 9 -15 19 -15 11 0 26 -3 34 -6 8 -3 22 3 32 12 10
10 19 13 23 7 4 -5 61 -9 132 -9 157 1 711 -13 807 -20 56 -4 71 -9 66 -20 -3
-8 -13 -14 -23 -14 -11 0 -39 -17 -63 -37 -24 -21 -62 -49 -85 -63 -40 -24
-63 -39 -184 -121 -29 -20 -77 -50 -106 -68 -29 -19 -63 -47 -76 -63 -16 -21
-34 -31 -64 -35 -23 -3 -42 -8 -42 -12 0 -15 -46 -32 -137 -52 -54 -11 -107
-26 -118 -33 -11 -7 -37 -19 -58 -26 -22 -7 -51 -18 -65 -26 -15 -8 -35 -14
-44 -14 -15 0 -62 -21 -156 -68 -38 -20 -152 -132 -155 -154 -2 -8 -17 -28
-34 -44 -18 -16 -33 -38 -35 -49 -2 -11 -11 -29 -21 -39 -9 -11 -22 -35 -29
-53 -7 -18 -16 -33 -20 -33 -4 0 -8 -11 -8 -25 0 -14 -3 -24 -8 -24 -20 3 -31
-3 -37 -21 -3 -11 -13 -20 -21 -20 -13 0 -94 -71 -94 -83 0 -2 -20 -26 -46
-51 -25 -25 -42 -51 -38 -57 4 -6 13 1 24 18 9 15 30 39 45 53 l27 25 -4 -30
c-2 -18 -8 -29 -16 -27 -8 1 -11 -2 -8 -6 3 -5 -3 -17 -13 -26 -11 -10 -22
-32 -25 -51 -4 -18 -14 -36 -22 -39 -11 -4 -14 -14 -10 -30 4 -15 0 -28 -9
-36 -8 -7 -12 -17 -9 -22 3 -5 -1 -17 -10 -27 -15 -16 -15 -19 -1 -31 22 -18
18 -28 -9 -23 -19 4 -24 1 -23 -13 1 -10 -4 -19 -12 -19 -8 0 -16 -6 -19 -14
-3 -8 0 -11 7 -7 16 10 14 2 -10 -40 -11 -20 -18 -43 -15 -50 3 -8 -1 -14 -9
-14 -8 0 -15 -9 -15 -19 0 -11 -4 -23 -10 -26 -12 -7 -14 -45 -2 -45 4 0 8
-16 9 -35 1 -19 -3 -35 -8 -35 -5 0 -9 -6 -9 -12 -1 -17 -46 -68 -61 -68 -9 0
-9 -3 0 -14 8 -10 8 -20 -4 -42 -14 -27 -15 -27 -15 -6 0 20 -2 21 -20 10 -21
-13 -27 -38 -10 -38 6 0 10 -5 10 -10 0 -6 -8 -10 -17 -8 -16 3 -18 -4 -15
-45 4 -46 3 -48 -33 -62 -38 -17 -40 -19 -50 -77 -4 -28 -10 -36 -21 -31 -16
6 -46 -26 -37 -40 3 -5 11 0 18 10 12 17 14 17 20 1 10 -25 -89 -117 -111
-105 -14 8 -16 6 -11 -12 4 -18 2 -20 -19 -15 -27 7 -29 2 -12 -25 9 -15 8
-22 -4 -35 -11 -11 -18 -12 -20 -4 -3 7 -12 9 -22 5 -14 -6 -16 -10 -7 -21 9
-10 5 -17 -14 -32 -14 -10 -25 -23 -25 -28 0 -6 5 -5 12 2 7 7 20 12 30 12 10
0 18 5 18 11 0 6 7 9 15 5 8 -3 15 0 15 6 0 9 3 9 11 1 16 -16 3 -32 -21 -26
-20 5 -29 -12 -10 -19 6 -2 4 -12 -6 -26 -9 -13 -20 -19 -27 -15 -7 4 -25 6
-42 5 -37 -4 -105 -34 -87 -39 18 -7 15 -21 -12 -50 -18 -20 -28 -24 -38 -16
-8 6 -21 7 -33 2 -36 -14 -65 -10 -65 9 -1 15 -2 15 -16 -3 -8 -11 -19 -21
-24 -21 -6 -1 -13 -2 -17 -3 -4 0 3 -8 15 -17 31 -21 27 -34 -9 -34 -27 0 -31
-3 -26 -21 5 -19 4 -20 -19 -4 -17 11 -38 14 -70 11 -34 -4 -46 -2 -50 9 -9
21 -114 15 -114 -6 0 -5 3 -8 8 -8 21 4 32 -3 32 -20 0 -11 6 -21 13 -24 19
-7 -12 -34 -53 -45 -31 -9 -25 -10 47 -11 70 -1 82 2 86 17 4 16 5 16 6 0 0
-10 8 -18 16 -18 18 0 19 2 1 45 -8 19 -11 35 -6 35 5 0 12 -9 15 -21 6 -17
13 -20 36 -15 16 3 29 1 29 -4 0 -5 -10 -10 -22 -12 -12 -2 -23 -9 -26 -15 -3
-10 1372 -13 6834 -13 l6838 0 -23 21 c-12 11 -26 32 -31 45 -6 14 -20 29 -32
34 -13 5 -19 9 -15 9 5 1 -5 12 -21 26 -27 22 -29 30 -25 65 4 26 2 40 -6 40
-6 0 -11 8 -11 19 0 10 -7 24 -15 31 -8 7 -15 19 -15 26 0 8 -7 14 -15 14 -18
0 -20 16 -2 23 7 4 4 8 -10 12 -22 7 -37 36 -49 95 -9 46 -48 87 -68 71 -20
-17 -30 4 -11 22 12 13 12 16 1 20 -21 8 -57 -4 -50 -17 3 -6 -15 11 -40 38
-25 26 -46 53 -46 59 0 6 -6 3 -13 -7 -12 -17 -15 -16 -45 14 -18 17 -32 36
-32 41 0 5 -11 9 -24 9 -20 0 -23 4 -19 23 5 22 5 22 -10 2 -9 -11 -17 -26
-17 -34 0 -19 -11 -8 -14 15 -3 23 -26 31 -26 10 0 -19 -11 -21 -28 -4 -9 9
-12 9 -12 -1 0 -7 -4 -9 -10 -6 -5 3 -10 15 -10 26 0 22 -29 26 -48 7 -9 -9
-12 -6 -12 15 0 18 -5 27 -16 27 -8 0 -13 4 -10 8 3 5 -8 19 -25 32 -16 14
-29 30 -29 37 0 16 -5 16 -31 1 -17 -11 -22 -10 -35 6 -12 17 -14 17 -14 3 0
-11 -13 -19 -42 -25 -44 -8 -65 1 -49 23 12 15 6 61 -9 80 -11 13 -9 20 13 43
15 16 27 31 27 35 0 14 -28 7 -34 -8 -3 -8 -12 -15 -20 -15 -21 0 -50 -57 -33
-63 9 -4 9 -6 0 -6 -7 -1 -13 -10 -13 -21 0 -36 -18 -21 -25 20 -4 22 -11 38
-15 35 -5 -3 -21 6 -36 20 -15 14 -34 25 -42 25 -8 0 -23 9 -32 20 -11 13 -24
18 -35 14 -13 -5 -14 -9 -4 -15 9 -5 4 -10 -15 -15 -16 -4 -31 -3 -35 2 -3 5
-17 15 -30 23 -21 12 -26 11 -36 -3 -18 -24 -26 -19 -15 10 14 35 13 44 -5 44
-8 0 -15 -7 -15 -15 0 -8 -7 -15 -16 -15 -11 0 -14 6 -9 20 4 14 1 22 -12 27
-10 4 -24 13 -32 20 -7 8 -21 11 -30 8 -12 -3 -21 2 -29 17 -8 18 -11 19 -11
6 -1 -25 -21 -23 -21 2 0 15 7 20 28 21 15 0 21 3 15 6 -7 2 -14 19 -14 36 -1
23 -3 26 -6 10 -6 -29 -27 -45 -55 -41 -18 2 -23 9 -21 31 1 15 -2 27 -8 27
-5 0 -9 -7 -9 -15 0 -23 -27 -18 -35 8 -4 14 -8 17 -12 9 -3 -7 1 -20 8 -28
10 -12 8 -19 -10 -37 l-22 -22 6 28 c6 23 4 27 -13 27 -12 0 -23 9 -27 20 -3
11 -13 20 -21 20 -8 0 -12 4 -9 10 8 13 -1 13 -28 -1 -22 -10 -22 -10 -2 6 20
16 20 16 -5 35 -26 21 -60 26 -60 11 0 -5 6 -11 13 -14 7 -2 8 -8 3 -13 -5 -5
-11 -4 -13 4 -3 6 -11 12 -19 12 -21 0 -54 38 -48 55 4 8 1 15 -5 15 -6 0 -11
-8 -11 -17 0 -12 -5 -9 -15 11 -8 15 -15 36 -15 45 0 25 -11 33 -28 19 -11
-10 -18 -8 -31 8 -18 22 -51 21 -51 -2 0 -8 -9 -14 -20 -14 -11 0 -20 5 -20
11 0 7 -10 9 -25 5 -18 -5 -27 -2 -31 9 -4 8 -15 15 -25 15 -23 0 -25 15 -4
24 25 9 17 24 -10 18 -23 -4 -25 -2 -19 27 4 20 3 31 -5 31 -6 0 -12 -12 -12
-27 -2 -24 -2 -25 -6 -6 -2 13 -15 31 -29 42 -22 17 -23 21 -9 35 15 14 13 15
-15 9 -22 -4 -35 -2 -40 7 -7 11 -11 11 -25 0 -14 -11 -18 -10 -31 8 -8 12
-24 22 -34 22 -11 0 -27 12 -37 26 -13 21 -14 30 -5 45 8 12 8 19 2 19 -5 0
-10 7 -10 16 0 9 -5 12 -11 8 -6 -4 -36 -1 -66 6 -45 11 -54 17 -50 32 4 13
-2 20 -19 24 -13 3 -24 11 -24 16 0 6 -10 8 -21 5 -16 -4 -28 1 -41 18 -11 14
-25 22 -33 18 -9 -3 -15 1 -15 10 0 28 -22 31 -42 7 -14 -18 -22 -20 -30 -12
-9 9 -8 12 5 12 9 0 17 5 17 10 0 6 -9 10 -20 10 -31 0 -24 17 9 23 25 5 30
11 29 37 -1 29 -28 46 -28 17 0 -11 -48 -47 -63 -47 -3 0 -8 11 -11 25 -6 24
-26 36 -26 15 0 -5 -7 -10 -15 -10 -10 0 -15 10 -15 28 0 21 -7 30 -32 41 -40
18 -68 46 -68 69 -1 15 -2 15 -16 -3 -8 -11 -27 -20 -43 -20 -24 -1 -27 3 -23
23 4 21 2 23 -14 14 -23 -12 -54 1 -54 23 0 11 -6 12 -26 5 -26 -10 -46 -2
-65 24 -4 4 -10 3 -14 -4 -5 -8 -14 3 -26 30 -18 40 -39 47 -39 13 0 -14 -4
-13 -20 5 -12 12 -25 22 -30 22 -6 0 -10 9 -10 21 0 12 -5 19 -12 17 -7 -3
-25 8 -40 24 -15 15 -37 28 -49 28 -12 0 -23 8 -26 18 -5 19 -51 52 -75 52
-17 1 -68 46 -68 61 0 6 -7 8 -16 5 -14 -5 -16 0 -11 36 5 32 4 37 -3 20 -10
-23 -36 -39 -47 -28 -4 3 -2 11 4 17 11 11 6 59 -6 59 -16 0 -20 -14 -10 -27
9 -9 8 -13 0 -13 -6 0 -11 -7 -11 -15 0 -8 -4 -15 -10 -15 -5 0 -10 5 -10 11
0 6 -6 9 -14 6 -8 -3 -17 -1 -19 6 -7 19 -35 -23 -29 -45 9 -35 -16 -18 -32
22 -20 51 -21 71 -1 63 13 -5 14 -2 4 21 -7 14 -19 26 -26 26 -16 0 -43 24
-43 38 0 5 -7 23 -15 38 l-15 29 0 -28 c0 -16 8 -41 19 -55 10 -15 24 -45 31
-67 7 -22 20 -56 28 -75 8 -19 14 -37 14 -40 -1 -3 7 -14 17 -25 24 -26 46
-67 43 -79 -4 -14 46 -123 84 -182 41 -64 53 -72 226 -158 141 -70 158 -84
245 -196 29 -37 32 -47 30 -103 -3 -70 -35 -154 -64 -164 -10 -3 -28 -15 -41
-26 -20 -19 -27 -20 -65 -10 -25 7 -124 10 -250 9 -154 -2 -213 1 -225 10 -12
9 -44 11 -105 8 -100 -6 -125 4 -152 56 -14 28 -17 29 -32 15 -10 -10 -13 -26
-10 -43 9 -45 -5 -57 -50 -46 -31 7 -39 14 -41 37 -2 15 -9 27 -18 27 -8 0
-13 -3 -13 -7 1 -5 1 -21 0 -37 -1 -24 -4 -27 -13 -18 -10 10 -10 17 -1 31 10
15 8 22 -6 35 -26 23 -34 20 -28 -13 3 -16 1 -35 -6 -44 -17 -23 -66 -11 -77
19 -5 13 -16 24 -23 24 -8 0 -22 9 -32 20 -16 18 -16 20 -1 26 9 3 24 4 34 2
19 -5 60 17 50 27 -5 5 -13 5 -114 4 -74 -2 -88 4 -72 31 9 14 21 17 51 15 44
-4 46 11 3 35 -25 14 -28 13 -41 -3 -9 -13 -20 -16 -39 -11 -34 8 -34 41 -1
56 35 16 31 35 -11 60 -26 15 -33 25 -28 37 4 9 9 33 12 55 4 36 3 38 -19 31
-13 -4 -35 -9 -49 -10 -15 -1 -32 -5 -39 -9 -7 -5 -15 -5 -19 -2 -9 9 37 39
88 57 43 15 45 17 44 55 -1 21 1 33 3 27 3 -7 13 -13 23 -13 14 0 21 -10 25
-33 4 -20 15 -37 28 -42 12 -6 30 -25 39 -44 22 -44 48 -61 48 -31 0 11 -6 35
-14 53 -14 35 -123 153 -137 149 -5 -1 -9 2 -9 8 0 5 -9 10 -21 10 -13 0 -23
8 -26 20 -3 11 -16 23 -28 26 -18 4 -24 15 -28 48 -3 23 -3 53 0 65 5 20 11
22 40 18 25 -5 39 -1 53 13 20 20 17 53 -4 48 -14 -4 -56 38 -56 55 0 7 -6 22
-14 32 -12 16 -11 23 6 53 24 43 19 56 -26 77 -54 26 -48 52 12 61 63 9 101
25 52 21 -37 -2 -35 -4 -81 95 -6 15 -15 25 -19 23 -9 -6 -41 33 -39 48 4 24
-13 67 -27 67 -8 0 -14 9 -14 20 0 13 7 20 19 20 11 0 23 5 26 11 4 6 21 9 39
8 17 -1 42 1 55 5 23 8 23 8 -8 27 -20 12 -34 30 -37 49 -4 16 -10 28 -14 25
-4 -3 -11 6 -14 20 -4 14 -13 25 -21 25 -23 0 -18 37 6 43 34 9 16 31 -24 30
-36 0 -51 17 -27 32 6 4 8 11 5 16 -4 5 3 9 14 9 12 0 21 7 21 15 0 17 -12 19
-26 5 -7 -7 -15 -2 -24 15 -7 14 -19 25 -26 25 -8 0 -11 6 -8 14 6 17 -43 76
-63 76 -19 0 -16 20 5 26 9 3 29 11 45 19 15 8 27 10 27 5 0 -6 5 -10 10 -10
6 0 6 7 -1 19 -15 23 -4 55 16 47 10 -3 15 1 15 12 0 10 7 28 16 40 10 14 14
32 10 48 -5 19 -1 27 18 36 28 12 26 28 -3 28 -25 0 -49 -29 -53 -64 -1 -16
-9 -31 -15 -34 -14 -4 -7 56 8 73 13 13 11 25 -3 22 -15 -2 -16 107 -3 234 6
58 5 78 -5 84 -8 5 -17 2 -24 -7 -6 -8 -16 -13 -23 -11 -19 7 -24 -14 -8 -30
19 -20 7 -90 -17 -95 -21 -4 -35 37 -17 49 10 6 6 9 -13 9 -23 0 -28 4 -28 25
0 18 -5 25 -20 25 -13 0 -20 -7 -20 -18 0 -10 -9 -27 -20 -38 -59 -58 -70 -55
-50 14 7 26 17 79 21 117 19 169 25 195 43 208 12 9 17 21 13 30 -8 22 13 137
25 137 5 0 6 16 2 38 -5 30 -4 35 7 25 7 -7 16 -13 20 -13 13 0 -2 38 -22 56
-10 9 -19 22 -19 28 0 6 5 4 10 -4 8 -12 10 -9 10 12 0 15 -4 29 -9 32 -16 10
-53 94 -50 113 2 10 -7 37 -19 61 -13 23 -25 61 -27 83 -4 38 -15 68 -15 41 0
-7 -5 -12 -11 -12 -6 0 -8 9 -4 20 4 14 -2 27 -20 45 -15 13 -36 40 -46 60
l-19 35 25 0 c14 0 25 4 25 10 0 5 8 9 18 8 15 -2 96 3 262 18 131 12 58 19
-208 20 -289 1 -383 10 -427 40 -11 8 -26 14 -34 14 -16 0 -116 46 -139 63
-157 124 -269 301 -337 532 -14 50 -30 104 -35 121 -12 36 -13 151 -2 140 4
-4 12 -38 19 -74 21 -121 35 -161 57 -168 12 -4 29 -13 39 -22 16 -14 19 -14
33 6 8 12 19 22 25 22 20 0 129 -76 135 -95 4 -11 25 -36 47 -56 26 -24 35
-39 28 -44 -9 -5 -7 -11 6 -20 27 -20 9 -29 -32 -15 -35 12 -37 11 -88 -36
-29 -27 -53 -52 -55 -55 -9 -20 39 -98 98 -162 89 -96 267 -164 405 -154 38 2
80 1 92 -4 43 -16 26 25 -32 78 -30 28 -55 57 -55 66 0 8 -9 17 -19 20 -14 3
-18 11 -14 25 2 11 0 23 -6 26 -6 4 -11 17 -12 29 l0 22 -9 -22 c-11 -28 -26
-29 -40 -3 -6 11 -20 20 -30 20 -11 0 -29 9 -40 20 -11 11 -26 19 -32 17 -7
-1 -12 4 -10 11 1 9 -5 11 -23 6 -19 -5 -25 -2 -25 10 0 8 -14 25 -30 38 -21
15 -27 24 -18 29 23 13 65 -2 79 -27 11 -22 14 -23 30 -8 16 14 20 14 46 -3
31 -20 57 -43 49 -43 -3 0 4 -10 15 -21 17 -17 23 -19 30 -8 4 8 6 23 3 35 -4
16 0 23 16 27 12 3 19 10 15 16 -4 8 -12 8 -27 0 -11 -6 -31 -8 -44 -5 -30 8
-32 36 -2 36 12 0 18 3 14 7 -8 8 -13 9 -40 12 -15 1 -32 73 -22 89 3 5 28 6
58 1 41 -7 61 -5 86 7 30 14 45 44 22 44 -5 0 -10 -4 -10 -10 0 -5 -4 -10 -10
-10 -19 0 -10 19 13 26 12 3 30 13 39 21 10 9 25 12 38 8 12 -4 50 -2 84 5
117 22 117 45 -1 42 -42 -2 -80 -7 -83 -12 -4 -7 -18 -4 -38 6 -32 16 -45 55
-22 69 6 3 10 24 10 45 0 35 3 39 33 45 17 3 72 20 121 37 63 21 97 28 122 23
27 -5 34 -3 34 10 0 12 6 15 20 10 16 -5 20 -2 20 14 0 19 -65 71 -88 71 -4 0
-19 12 -33 28 -34 37 -77 72 -89 72 -5 0 -14 8 -19 18 -5 9 -24 26 -42 36 -17
10 -29 14 -25 8 5 -8 1 -10 -8 -6 -9 3 -16 10 -16 14 0 5 -9 12 -20 15 -11 4
-18 10 -16 14 6 8 65 1 131 -16 22 -6 52 -14 67 -17 14 -3 47 -22 72 -41 25
-19 48 -30 51 -25 9 15 -4 30 -20 23 -8 -3 -15 0 -15 6 0 6 -18 29 -40 51 -31
31 -47 40 -75 40 -19 0 -35 4 -35 8 0 24 -48 60 -87 67 -24 4 -43 11 -43 16 0
5 -9 9 -20 9 -11 0 -20 6 -20 14 0 20 118 29 383 29 119 0 217 4 217 8 0 5 -7
9 -16 9 -29 0 -8 25 22 26 93 4 100 6 44 14 -30 5 -109 11 -175 15 -118 6
-185 19 -185 34 0 4 9 18 20 31 11 13 20 29 20 37 0 7 7 16 15 19 11 5 13 10
5 19 -8 9 -4 11 15 7 33 -6 34 20 0 38 -14 7 -25 17 -25 21 0 13 -69 51 -80
44 -5 -3 -10 -1 -10 4 0 6 -8 11 -18 11 -9 0 -42 9 -72 21 -30 12 -66 21 -80
20 -13 -1 -40 7 -60 16 -19 10 -53 18 -75 18 -148 2 -161 4 -174 29 -8 14 -30
29 -55 37 -22 7 -46 16 -52 21 -6 5 -19 5 -28 2 -14 -5 -16 -2 -11 18 6 23 4
24 -22 21 -25 -4 -39 6 -105 73 -70 71 -79 77 -101 67 -29 -14 -57 0 -57 28 0
23 16 42 43 52 9 3 17 11 17 17 0 7 8 9 20 5 25 -8 44 3 32 18 -11 14 -2 42
13 43 6 0 25 7 43 15 25 10 32 19 32 41 0 19 8 32 30 45 23 13 28 22 23 38 -4
11 -7 48 -8 83 -1 35 -6 67 -12 70 -16 11 -35 51 -28 62 4 6 -1 13 -9 16 -8 3
-18 15 -21 25 -4 11 -27 40 -51 65 -24 25 -44 52 -44 60 0 8 -9 14 -20 14 -25
0 -27 17 -2 22 15 3 13 7 -9 28 -14 14 -34 40 -43 58 -15 28 -21 33 -44 28
-15 -3 -43 -7 -62 -8 l-35 -3 0 45 c0 33 -4 45 -15 45 -9 0 -16 11 -18 28 -4
31 -22 37 -22 6 0 -11 -4 -17 -10 -14 -15 9 -12 46 5 79 9 16 14 35 11 43 -3
7 -1 15 4 18 6 4 10 17 10 30 0 16 10 30 30 41 16 10 30 27 32 38 3 19 10 21
63 21 33 0 65 3 72 8 7 4 13 1 15 -8 3 -13 6 -13 32 0 16 9 65 17 110 19 56 3
93 11 121 26 36 18 51 20 135 14 68 -4 100 -11 112 -23 43 -41 82 -61 129 -65
20 -2 41 -6 47 -10 6 -3 14 4 18 16 7 22 9 29 12 54 1 7 11 14 22 17 11 3 20
13 20 22 0 9 -5 13 -10 10 -6 -4 -18 -1 -26 6 -8 6 -17 9 -21 5 -3 -3 -1 -6 5
-6 7 0 12 -9 12 -20 0 -23 -7 -24 -45 -10 -21 8 -24 13 -16 27 13 26 16 82 7
126 -6 26 -5 42 3 50 6 6 11 20 11 32 0 20 -1 20 -18 -2 -12 -15 -30 -22 -59
-24 -47 -4 -60 4 -65 40 -4 34 -26 38 -34 7 -7 -30 -7 -30 -51 -14 -18 7 -35
20 -39 30 -7 23 -24 23 -24 1 -1 -21 -23 -53 -36 -53 -11 0 -37 80 -30 88 3 3
10 -6 15 -19 l10 -24 7 23 c3 12 10 22 15 22 5 0 9 9 9 20 0 24 -8 25 -38 4
-27 -19 -28 -14 -3 27 22 36 17 65 -12 73 -28 7 -34 0 -8 -9 24 -7 30 -55 7
-55 -16 0 -46 42 -46 66 0 9 -9 18 -19 21 -23 6 -42 84 -22 91 6 2 11 15 11
28 0 14 -4 22 -10 19 -5 -3 -10 3 -10 14 0 30 -17 26 -25 -6 -5 -21 -8 -24
-16 -12 -8 12 -10 12 -19 -1 -8 -12 -10 -9 -10 11 0 15 -7 29 -15 33 -22 8
-19 39 3 32 18 -6 50 9 40 19 -3 3 -37 8 -74 10 -65 5 -70 3 -90 -23 l-22 -27
-7 28 c-5 18 -14 27 -27 27 -14 0 -18 -5 -14 -15 4 -10 -1 -15 -15 -15 -16 0
-19 4 -14 20 5 16 3 19 -11 13 -10 -4 -22 0 -30 11 -7 10 -18 15 -24 11 -6 -3
-24 -1 -40 7 -23 10 -30 19 -30 40 0 24 4 28 29 28 16 0 31 -6 34 -12 2 -7 8
-1 12 14 4 14 15 28 25 31 17 4 20 17 22 93 2 49 2 135 0 192 l-3 102 -120 0
-119 0 6 -162z m-620 -245 c13 -29 13 -41 3 -59 -9 -19 -16 -21 -30 -13 -14 7
-19 21 -19 53 0 67 22 77 46 19z m-506 -273 c0 -5 -2 -10 -4 -10 -3 0 -8 5
-11 10 -3 6 -1 10 4 10 6 0 11 -4 11 -10z m1660 -16 c0 -8 -7 -14 -15 -14 -15
0 -21 21 -9 33 10 9 24 -2 24 -19z m-1813 -114 c-1 -32 -6 -50 -14 -50 -7 0
-13 5 -13 10 0 6 -12 15 -27 21 -19 7 -23 13 -15 21 8 8 15 8 26 -1 17 -15 30
-1 35 39 0 6 3 10 5 10 3 0 4 -22 3 -50z m-42 30 c3 -5 -3 -10 -14 -10 -12 0
-21 5 -21 10 0 6 6 10 14 10 8 0 18 -4 21 -10z m-17 -82 c-4 -27 -28 -36 -28
-10 0 20 8 32 22 32 5 0 8 -10 6 -22z m-3311 -14 c-3 -3 -12 -4 -19 -1 -8 3
-5 6 6 6 11 1 17 -2 13 -5z m3874 -350 c14 -13 24 -14 51 -5 78 25 227 14 248
-18 6 -10 10 -9 19 5 11 18 12 18 31 -4 12 -15 35 -26 60 -29 44 -6 70 -32 70
-70 0 -14 6 -23 15 -23 17 0 20 -16 5 -25 -15 -9 -12 -25 5 -25 23 0 18 -16
-16 -44 -17 -15 -34 -38 -38 -53 -4 -15 -13 -29 -21 -31 -9 -3 -11 1 -7 12 4
10 1 16 -8 16 -18 0 -19 -12 -4 -27 6 -6 8 -16 4 -23 -11 -17 -56 -32 -69 -22
-16 12 -108 3 -99 -11 4 -6 0 -8 -9 -4 -11 4 -18 -2 -22 -19 -4 -13 -11 -24
-16 -24 -14 0 -119 -86 -146 -118 -16 -19 -26 -23 -45 -18 -18 6 -20 5 -9 -3
19 -13 1 -46 -26 -47 -29 0 -74 -15 -74 -24 0 -4 -10 -10 -23 -14 -13 -3 -29
-17 -36 -32 -7 -16 -17 -24 -25 -21 -17 7 -50 -28 -41 -42 10 -17 -17 -80 -38
-87 -19 -6 -41 -50 -31 -65 3 -5 12 -9 20 -9 15 0 17 -5 8 -37 -3 -12 -15 -23
-28 -25 -24 -3 -33 -48 -10 -48 8 0 14 5 14 11 0 6 6 9 14 6 8 -3 17 1 20 9 5
12 14 14 38 9 18 -4 35 -9 37 -11 6 -5 -23 -29 -51 -41 -16 -7 -28 -18 -28
-26 0 -7 -13 -18 -30 -24 -16 -6 -33 -19 -37 -29 -3 -10 -16 -27 -27 -38 l-21
-21 39 -3 c28 -2 44 2 60 17 12 12 30 21 39 21 9 0 18 4 21 9 3 5 26 12 51 15
37 6 45 11 45 29 1 21 2 21 14 4 16 -21 150 -32 193 -16 18 7 30 6 37 -1 7 -7
6 -10 -2 -10 -7 0 -12 -4 -12 -10 0 -5 14 -10 30 -10 29 0 40 -13 20 -25 -10
-6 -9 -33 3 -52 10 -16 -25 -34 -43 -23 -14 9 -90 -23 -90 -39 0 -4 -11 -13
-25 -19 -15 -7 -25 -8 -25 -2 0 6 -11 5 -27 -1 -16 -6 -43 -11 -60 -11 -18 0
-33 -5 -33 -10 0 -16 -63 -68 -82 -68 -10 0 -18 -6 -18 -14 0 -8 -10 -18 -22
-22 -12 -3 -28 -13 -36 -20 -7 -8 -28 -14 -46 -14 -20 0 -40 -8 -50 -19 -15
-16 -36 -19 -149 -23 -118 -4 -138 -7 -192 -33 -33 -15 -75 -43 -93 -61 -18
-19 -39 -34 -45 -34 -7 0 -30 -18 -51 -40 -21 -22 -41 -38 -46 -35 -4 3 -13
-10 -19 -27 -9 -26 -9 -30 1 -20 23 23 30 12 9 -14 -12 -15 -21 -40 -21 -56 0
-20 -6 -31 -22 -37 -30 -11 -218 -22 -218 -13 0 4 7 27 16 52 9 25 13 59 11
76 -4 20 1 42 13 62 27 45 76 198 84 263 9 74 31 144 56 179 11 15 20 32 20
38 0 5 8 20 19 33 14 19 20 50 26 143 5 82 13 132 27 162 14 32 18 62 16 104
-3 60 6 85 22 60 5 -8 13 -11 17 -6 4 4 1 13 -9 20 -15 11 -15 14 3 36 10 14
19 34 19 44 0 45 35 129 62 149 16 12 28 27 28 34 0 15 95 113 109 113 5 0 18
11 28 23 10 13 37 36 61 51 23 14 42 31 42 36 0 6 21 20 48 30 26 11 56 25 67
31 79 46 139 71 198 81 37 6 67 16 67 21 0 6 3 8 6 4 4 -3 12 0 20 7 7 8 38
14 70 15 32 0 60 3 62 6 8 8 14 6 33 -11z m-1871 -84 c0 -13 -60 -13 -80 0
-11 7 -2 10 33 10 26 0 47 -4 47 -10z m2420 -122 c0 -18 -2 -20 -9 -8 -6 8 -7
18 -5 22 9 14 14 9 14 -14z m-2460 -38 c-19 -13 -30 -13 -30 0 0 6 10 10 23
10 18 0 19 -2 7 -10z m807 -46 c-3 -3 -12 -4 -19 -1 -8 3 -5 6 6 6 11 1 17 -2
13 -5z m1357 -153 c3 -5 -1 -12 -10 -15 -20 -8 -29 -1 -19 13 8 13 22 14 29 2z
m698 -31 c12 -11 17 -20 11 -20 -5 0 -18 9 -28 20 -10 11 -15 20 -11 20 4 0
16 -9 28 -20z m-14 -67 c-6 -7 -15 -10 -21 -6 -8 5 -7 8 1 11 7 2 10 8 6 13
-3 5 -2 14 2 21 5 8 10 6 14 -8 4 -10 3 -25 -2 -31z m122 37 c0 -5 -4 -10 -10
-10 -5 0 -10 5 -10 10 0 6 5 10 10 10 6 0 10 -4 10 -10z m-1230 -240 c0 -5 -5
-10 -11 -10 -5 0 -7 5 -4 10 3 6 8 10 11 10 2 0 4 -4 4 -10z m-50 -124 c0 -3
-4 -8 -10 -11 -5 -3 -10 -1 -10 4 0 6 5 11 10 11 6 0 10 -2 10 -4z m-800 -39
c0 -20 -32 -47 -55 -47 -11 0 -4 19 16 44 25 32 39 33 39 3z m0 -64 c0 -16 -7
-37 -15 -47 -8 -11 -15 -28 -15 -39 0 -10 -4 -16 -9 -12 -6 3 -17 -10 -27 -30
-14 -30 -34 -47 -34 -30 0 9 59 117 73 133 6 8 11 23 9 34 -2 10 2 18 7 18 6
0 11 -12 11 -27z m860 -63 c0 -11 -4 -20 -10 -20 -5 0 -10 9 -10 20 0 11 5 20
10 20 6 0 10 -9 10 -20z m-30 -14 c0 -3 -4 -8 -10 -11 -5 -3 -10 -1 -10 4 0 6
5 11 10 11 6 0 10 -2 10 -4z m425 -85 c10 -18 -17 -23 -33 -7 -15 15 -15 16 5
16 12 0 24 -4 28 -9z m788 -78 c-5 -11 -8 -12 -13 -2 -5 7 -6 19 -3 26 5 11 8
12 13 2 5 -7 6 -19 3 -26z m52 -73 c-3 -5 -10 -10 -16 -10 -5 0 -9 5 -9 10 0
6 7 10 16 10 8 0 12 -4 9 -10z m965 -454 c0 -3 -4 -8 -10 -11 -5 -3 -10 -1
-10 4 0 6 5 11 10 11 6 0 10 -2 10 -4z m-50 -91 c-12 -15 -30 -12 -30 6 0 5
10 9 21 9 18 0 19 -2 9 -15z m-2998 -152 c-23 -9 -39 -58 -41 -128 -3 -74 -7
-88 -20 -66 -6 9 -11 10 -15 2 -9 -14 2 -33 14 -26 5 3 11 1 15 -5 3 -5 -1
-10 -9 -10 -19 0 -18 6 -16 -139 1 -87 5 -117 17 -129 9 -9 17 -11 21 -6 10
14 79 9 98 -7 8 -7 13 -18 10 -24 -2 -7 9 -25 25 -41 29 -28 36 -52 20 -70
-13 -13 5 -54 24 -54 18 0 20 21 3 38 -18 18 -2 14 34 -8 18 -11 47 -20 64
-20 17 0 53 -11 80 -25 27 -14 54 -23 61 -20 14 5 28 -11 16 -18 -5 -2 -2 -2
6 0 8 2 20 -6 28 -17 12 -17 54 -45 80 -53 4 -1 7 -7 5 -13 -1 -6 5 -17 13
-24 21 -17 19 -62 -4 -91 -10 -13 -16 -30 -14 -36 3 -9 -6 -13 -29 -13 -25 0
-44 -11 -79 -43 -25 -23 -49 -49 -52 -57 -4 -10 -6 -8 -6 8 -1 30 -13 28 -53
-8 -18 -16 -38 -30 -44 -30 -7 0 -15 -7 -18 -16 -5 -13 -9 -14 -21 -4 -12 10
-18 10 -30 0 -18 -15 -20 -40 -3 -40 9 0 9 -3 0 -12 -10 -10 -15 -10 -22 2 -5
8 -12 11 -15 8 -14 -14 8 -29 33 -23 15 4 28 1 33 -6 11 -18 185 -38 329 -38
171 -1 325 30 440 88 45 23 85 39 87 37 6 -6 -94 -71 -137 -89 -99 -42 -205
-57 -415 -57 -171 0 -316 11 -390 31 -160 42 -231 77 -306 156 -49 50 -89 119
-89 152 0 11 -4 23 -10 26 -5 3 -10 24 -10 45 0 21 5 42 10 45 6 3 10 39 10
80 0 41 6 104 14 142 7 37 19 115 25 173 6 58 16 141 22 186 6 44 9 106 8 138
-1 31 2 61 8 67 17 17 125 47 168 47 22 0 34 -2 27 -5z m-272 -144 c0 -12 -7
-19 -19 -19 -19 0 -22 14 -8 38 11 17 27 6 27 -19z m2128 -73 c28 -1 52 -5 52
-9 0 -5 -70 -7 -155 -5 -85 2 -155 6 -155 10 0 12 44 16 125 10 44 -3 104 -6
133 -6z m-2139 -50 c19 -21 23 -32 18 -62 -7 -45 -29 -64 -37 -32 -5 20 -7 20
-22 4 -25 -24 -31 -4 -23 70 7 70 15 73 64 20z m1858 38 c-3 -3 -12 -4 -19 -1
-8 3 -5 6 6 6 11 1 17 -2 13 -5z m283 -53 c0 -10 7 -21 15 -25 8 -3 15 -16 15
-30 0 -14 5 -28 10 -31 14 -9 12 -71 -2 -83 -19 -14 -81 -3 -74 14 3 7 -6 22
-20 33 -18 14 -24 28 -22 49 4 58 -47 84 -151 78 -34 -3 -73 -1 -85 4 -13 5
42 9 147 9 157 1 167 0 167 -18z m-222 -52 c12 -13 17 -39 17 -77 0 -47 4 -59
20 -67 13 -7 20 -21 20 -40 1 -17 4 -42 9 -57 7 -23 11 -25 26 -16 14 9 25 9
42 1 23 -11 23 -11 -9 -18 -45 -10 -41 -25 5 -19 20 2 32 2 25 -1 -11 -6 -7
-17 43 -118 8 -16 12 -32 9 -37 -3 -4 2 -11 11 -14 9 -4 14 -13 10 -21 -3 -8
-1 -15 4 -15 5 0 18 -19 29 -42 11 -24 45 -69 75 -101 31 -33 56 -66 56 -75 0
-34 35 -115 65 -149 20 -23 43 -38 70 -43 22 -5 60 -14 84 -21 51 -14 64 -4
58 49 -1 17 -2 32 0 32 1 0 14 -22 28 -50 19 -37 25 -64 25 -112 -1 -56 -4
-67 -30 -95 -28 -31 -34 -33 -97 -33 -40 0 -80 -6 -96 -15 -28 -14 -71 -8 -65
10 3 10 -79 25 -133 26 -21 0 -28 6 -32 27 -3 15 -1 29 4 30 16 6 10 23 -28
75 -46 62 -60 88 -80 147 -8 25 -22 52 -30 61 -9 11 -12 26 -7 43 5 21 3 25
-9 20 -10 -3 -18 2 -22 15 -3 12 -17 23 -31 26 -13 3 -34 7 -47 10 -16 3 -29
-4 -47 -25 -13 -16 -27 -27 -32 -24 -4 3 -8 0 -8 -7 0 -6 -27 -38 -60 -70 -47
-46 -60 -64 -60 -88 0 -43 -30 -113 -45 -107 -8 3 -15 -8 -19 -30 -4 -19 -11
-34 -16 -34 -5 0 -18 -16 -28 -36 l-18 -36 -72 -1 c-40 0 -75 3 -79 6 -3 4
-17 7 -30 7 -24 0 -31 14 -13 25 6 3 10 1 10 -6 0 -8 4 -8 15 1 24 20 17 30
-16 23 -31 -6 -31 -6 -24 28 9 44 29 75 63 96 15 10 43 30 63 46 35 27 37 33
41 95 5 87 39 155 124 250 35 40 64 77 64 82 0 6 6 10 14 10 7 0 21 11 30 25
13 20 22 24 42 19 31 -8 73 24 52 39 -10 6 -9 8 2 4 9 -2 16 -17 17 -36 2 -39
8 -47 25 -34 22 18 68 22 68 7 0 -20 13 -17 28 6 9 15 10 26 2 40 -7 13 -7 21
1 25 6 5 4 12 -8 21 -17 12 -17 13 0 14 9 0 17 5 17 10 0 13 -13 13 -28 -2
-15 -15 -52 16 -52 43 0 23 -11 29 -37 23 -15 -4 -23 -17 -28 -42 -10 -53 -18
-59 -67 -53 -47 7 -51 14 -36 81 4 19 9 73 12 119 3 46 8 86 11 89 3 3 -1 12
-7 21 -7 9 -9 13 -4 9 5 -4 18 -1 30 7 11 8 28 15 38 15 10 0 18 7 18 15 0 21
9 19 28 -6z m1207 -5 c15 -15 14 -18 -5 -31 -11 -8 -28 -12 -36 -9 -13 5 -13
9 3 31 22 29 18 29 38 9z m55 -15 c0 -5 -7 -9 -15 -9 -15 0 -20 12 -9 23 8 8
24 -1 24 -14z m-3233 -66 c-3 -10 -5 -4 -5 12 0 17 2 24 5 18 2 -7 2 -21 0
-30z m2098 27 c3 -5 1 -10 -4 -10 -6 0 -11 5 -11 10 0 6 2 10 4 10 3 0 8 -4
11 -10z m-2181 -15 c3 -8 3 -15 0 -15 -3 0 -12 7 -20 15 -13 13 -13 15 -1 15
8 0 17 -7 21 -15z m2112 -62 c-7 -7 -26 7 -26 19 0 6 6 6 15 -2 9 -7 13 -15
11 -17z m-311 -120 c-15 -58 -31 -113 -35 -122 -5 -9 -14 -31 -20 -48 -7 -18
-16 -33 -21 -33 -9 0 13 80 40 143 10 23 24 74 31 112 14 77 23 99 28 72 2 -9
-9 -65 -23 -124z m371 105 c-9 -5 -16 -19 -16 -31 -1 -17 -2 -19 -9 -7 -5 8
-11 27 -15 42 -6 26 -6 27 25 16 26 -9 29 -12 15 -20z m-2037 -51 c-5 -18 -12
-54 -14 -82 -11 -112 -16 -138 -27 -127 -11 11 -7 83 12 195 12 66 16 76 26
62 9 -11 9 -26 3 -48z m2227 39 c3 -13 0 -34 -6 -46 -8 -15 -9 -25 -2 -29 15
-9 26 -61 13 -61 -6 0 -8 -7 -5 -15 3 -8 11 -13 17 -12 6 1 12 -6 15 -15 2
-12 -3 -16 -17 -15 -24 2 -81 101 -81 141 0 32 27 76 46 76 7 0 16 -11 20 -24z
m-212 -55 c3 -5 0 -11 -8 -14 -8 -3 -17 1 -20 9 -6 15 19 20 28 5z m-434 -82
c0 -5 -7 -9 -15 -9 -9 0 -12 6 -9 15 6 15 24 11 24 -6z m415 -49 c3 -5 -1 -10
-9 -10 -9 0 -16 5 -16 10 0 6 4 10 9 10 6 0 13 -4 16 -10z m-5 -50 c0 -5 -4
-10 -10 -10 -5 0 -10 5 -10 10 0 6 5 10 10 10 6 0 10 -4 10 -10z m309 -9 c6
-10 7 -21 4 -25 -3 -3 6 -6 20 -6 23 0 27 -4 27 -29 0 -17 4 -32 9 -36 5 -3
12 -19 16 -35 4 -17 10 -30 15 -30 13 0 43 -84 31 -88 -7 -2 -6 -10 1 -22 16
-25 11 -28 -34 -23 -31 4 -38 10 -43 34 -4 16 -4 38 0 49 4 13 2 20 -8 20 -20
0 -74 117 -69 148 2 6 -2 12 -8 12 -5 0 -10 7 -10 15 0 8 5 15 11 15 5 0 7 5
4 10 -3 6 1 10 9 10 8 0 20 -8 25 -19z m-673 -117 c-3 -9 -6 -20 -6 -25 0 -4
-13 -15 -30 -24 -28 -15 -30 -14 -30 4 0 11 12 29 28 40 33 25 46 26 38 5z
m1171 -36 c-3 -8 -6 -5 -6 6 -1 11 2 17 5 13 3 -3 4 -12 1 -19z m-1232 -47 c9
-16 -17 -61 -35 -61 -16 0 -16 2 -2 35 16 35 26 42 37 26z m-1588 -67 c-3 -3
-12 -4 -19 -1 -8 3 -5 6 6 6 11 1 17 -2 13 -5z m111 -141 c29 -28 78 -63 109
-78 72 -33 193 -66 261 -72 44 -4 51 -7 41 -19 -13 -16 -45 -19 -54 -4 -10 16
-25 12 -19 -5 4 -8 1 -15 -5 -15 -7 0 -14 6 -17 14 -3 8 -13 13 -22 12 -17 -3
-39 -65 -41 -113 -1 -35 -34 -103 -52 -108 -9 -3 -22 -17 -29 -30 -7 -14 -17
-25 -22 -25 -4 0 -8 -17 -8 -39 0 -49 -10 -101 -20 -101 -4 0 -22 12 -39 27
-22 19 -31 36 -31 57 l0 29 -25 -23 c-23 -22 -25 -22 -25 -4 1 21 24 57 32 49
3 -3 11 1 17 9 10 12 8 17 -11 27 -13 7 -25 12 -28 11 -3 -1 -5 4 -5 11 0 6
-4 18 -8 25 -5 6 -5 17 -2 22 3 6 3 15 -1 21 -4 7 -13 -2 -21 -20 -11 -23 -13
-35 -5 -44 8 -10 7 -21 -3 -41 -8 -16 -16 -36 -17 -45 0 -9 -4 7 -7 34 -3 28
-2 67 3 87 6 27 4 50 -8 84 -9 28 -16 80 -16 125 0 43 -4 81 -10 84 -5 3 -11
0 -11 -7 -3 -25 -18 77 -18 123 -1 61 9 68 39 27 14 -18 49 -56 78 -85z m2877
98 c3 -5 1 -12 -5 -16 -5 -3 -10 1 -10 9 0 18 6 21 15 7z m-1555 -96 c-23 -13
-23 -14 -4 -15 30 0 36 -11 16 -27 -15 -12 -14 -13 11 -7 33 8 36 -8 5 -29
-46 -32 -88 -75 -88 -90 0 -9 -8 -21 -17 -26 -10 -6 -12 -11 -6 -11 10 0 10
-6 1 -27 -16 -38 -18 -39 -28 -23 -6 8 -10 43 -10 78 0 50 5 70 23 97 26 37
93 95 111 95 6 -1 0 -7 -14 -15z m90 -14 c0 -5 -7 -12 -16 -15 -24 -9 -28 -7
-14 9 14 17 30 20 30 6z m-120 -216 c0 -8 -4 -15 -10 -15 -5 0 -10 7 -10 15 0
8 5 15 10 15 6 0 10 -7 10 -15z m950 -115 c0 -13 -11 -13 -30 0 -12 8 -11 10
8 10 12 0 22 -4 22 -10z m-2251 -278 c-1 -33 -2 -34 -9 -12 -12 36 -12 62 0
55 6 -3 10 -23 9 -43z m78 26 c-3 -8 -6 -5 -6 6 -1 11 2 17 5 13 3 -3 4 -12 1
-19z m-22 -118 c3 -5 -1 -10 -9 -10 -9 0 -16 5 -16 10 0 6 4 10 9 10 6 0 13
-4 16 -10z m2655 -80 c0 -5 -7 -10 -15 -10 -8 0 -18 0 -22 -1 -4 0 -9 4 -11
10 -2 6 8 11 22 11 14 0 26 -4 26 -10z m41 -5 c-1 -15 -24 -12 -29 3 -3 9 2
13 12 10 10 -1 17 -7 17 -13z m-413 -259 l3 -37 -20 20 c-21 21 -27 42 -14 55
15 14 28 -2 31 -38z m282 -212 c0 -8 5 -12 10 -9 6 3 10 0 10 -7 0 -18 -36
-39 -55 -32 -23 9 -18 26 6 19 19 -6 21 -4 15 19 -4 15 -2 26 4 26 5 0 10 -7
10 -16z m738 -177 c2 -12 -1 -15 -12 -11 -19 7 -22 38 -3 32 6 -3 13 -12 15
-21z m-225 -23 c-4 -10 -9 -12 -15 -6 -12 12 -1 35 12 27 5 -3 6 -13 3 -21z
m223 -12 c20 -13 25 -59 8 -76 -22 -22 -24 -20 -14 15 7 23 6 35 -5 46 -23 22
-15 33 11 15z m-246 -16 c0 -7 -7 -19 -15 -26 -12 -10 -15 -9 -15 7 0 11 3 23
7 26 11 12 23 8 23 -7z m-77 -105 c-3 -11 -12 -22 -20 -26 -13 -4 -13 -3 -4 9
6 8 11 18 10 22 -3 17 1 25 10 20 5 -3 7 -15 4 -25z m287 9 c0 -5 -4 -10 -10
-10 -5 0 -10 5 -10 10 0 6 5 10 10 10 6 0 10 -4 10 -10z m-320 -122 c0 -25 -3
-29 -10 -18 -13 20 -13 50 0 50 6 0 10 -15 10 -32z m-115 -82 c17 -12 24 -12
49 1 24 12 30 13 37 1 13 -21 11 -29 -11 -35 -11 -3 -20 -12 -20 -19 0 -18
-34 -18 -69 0 -24 13 -32 34 -22 64 2 6 19 1 36 -12z m-225 -71 c0 -2 -7 -5
-15 -9 -9 -3 -15 0 -15 9 0 9 6 12 15 9 8 -4 15 -7 15 -9z m660 5 c0 -5 -2
-10 -4 -10 -3 0 -8 5 -11 10 -3 6 -1 10 4 10 6 0 11 -4 11 -10z m-670 -51 c0
-5 -9 -9 -20 -9 -19 0 -26 11 -14 23 8 8 34 -3 34 -14z m-2360 2 c0 -5 -7 -12
-16 -15 -22 -9 -24 -8 -24 9 0 8 9 15 20 15 11 0 20 -4 20 -9z m2490 -41 c0
-11 -4 -20 -9 -20 -5 0 -7 9 -4 20 3 11 7 20 9 20 2 0 4 -9 4 -20z m488 -27
c-14 -18 -28 -16 -28 2 0 8 -6 15 -12 15 -7 0 -2 6 12 13 21 11 26 11 31 -2 4
-9 2 -22 -3 -28z m69 25 c-3 -8 -6 -5 -6 6 -1 11 2 17 5 13 3 -3 4 -12 1 -19z
m-3229 -35 c3 -18 -1 -23 -20 -23 -13 0 -29 -5 -36 -12 -8 -8 -14 -5 -22 16
-13 35 -13 34 8 39 38 11 67 2 70 -20z m2742 23 c0 -3 -4 -8 -10 -11 -5 -3
-10 -1 -10 4 0 6 5 11 10 11 6 0 10 -2 10 -4z m-2690 -44 c0 -4 -9 -8 -20 -9
-11 -1 -20 2 -20 8 0 5 9 9 20 9 11 0 20 -4 20 -8z m3230 -17 c11 -13 8 -15
-13 -15 -14 0 -29 5 -32 10 -5 8 -11 8 -20 0 -13 -11 -30 2 -18 14 12 12 71 6
83 -9z m-670 -40 c0 -19 -4 -35 -8 -35 -7 0 -8 33 -3 63 3 21 11 2 11 -28z
m710 -32 c0 -7 -4 -13 -9 -13 -5 0 -7 -9 -4 -20 3 -11 0 -20 -6 -20 -6 0 -11
9 -11 20 0 16 -7 20 -34 20 -43 0 -57 17 -19 23 49 6 83 2 83 -10z m-5416 -8
c-10 -8 -23 -14 -29 -14 -5 0 -1 6 9 14 11 8 24 15 30 15 5 0 1 -7 -10 -15z
m-1346 -10 c59 -2 164 -4 235 -4 131 -1 178 -14 62 -18 -36 -1 -74 -7 -84 -13
-25 -13 -61 -13 -61 0 0 15 -19 12 -37 -6 -14 -13 -29 -15 -92 -9 -42 4 -83 7
-93 7 -9 0 -19 9 -23 21 -7 21 -7 21 -13 2 -5 -13 -18 -21 -35 -23 -25 -3 -28
0 -22 17 4 14 2 21 -7 22 -7 1 1 5 17 8 17 4 34 6 38 3 4 -2 56 -5 115 -7z
m1299 -11 c-3 -3 -12 -4 -19 -1 -8 3 -5 6 6 6 11 1 17 -2 13 -5z m-349 -31
c-32 -2 -86 -2 -120 0 -35 2 -9 3 57 3 66 0 94 -1 63 -3z m-658 -13 c0 -5 -7
-7 -15 -4 -8 4 -15 8 -15 10 0 2 7 4 15 4 8 0 15 -4 15 -10z m866 -15 c-15 -8
-36 -15 -45 -15 -9 1 -3 7 14 15 41 18 67 19 31 0z m-1206 -5 c0 -5 -5 -10
-11 -10 -5 0 -7 5 -4 10 3 6 8 10 11 10 2 0 4 -4 4 -10z m63 -7 c-7 -2 -19 -2
-25 0 -7 3 -2 5 12 5 14 0 19 -2 13 -5z m310 -10 c-7 -2 -19 -2 -25 0 -7 3 -2
5 12 5 14 0 19 -2 13 -5z m70 0 c-7 -2 -21 -2 -30 0 -10 3 -4 5 12 5 17 0 24
-2 18 -5z m154 1 c-3 -3 -12 -4 -19 -1 -8 3 -5 6 6 6 11 1 17 -2 13 -5z m50 0
c-3 -3 -12 -4 -19 -1 -8 3 -5 6 6 6 11 1 17 -2 13 -5z m2899 -19 c12 -9 14
-14 6 -15 -7 0 -20 -7 -28 -15 -9 -8 -19 -15 -24 -15 -9 0 -20 47 -12 55 10
10 38 5 58 -10z m2824 -41 c0 -8 -5 -12 -10 -9 -6 4 -8 11 -5 16 9 14 15 11
15 -7z m-52 -56 c-5 -32 -28 -35 -28 -4 0 17 5 26 16 26 10 0 14 -7 12 -22z
m-2808 -3 c10 -12 7 -15 -13 -20 -28 -7 -67 2 -67 15 0 9 22 17 51 19 9 0 22
-6 29 -14z m-102 -291 c25 -7 30 -32 7 -40 -8 -4 -12 -10 -9 -15 3 -5 -2 -12
-12 -16 -11 -4 -23 2 -35 18 -29 37 -25 48 21 58 3 0 15 -2 28 -5z m52 -82 c0
-10 -22 -32 -32 -32 -13 0 -9 28 5 33 19 8 27 8 27 -1z m4444 -46 c13 5 41
-44 31 -54 -3 -4 -8 4 -12 16 -6 24 -19 29 -26 10 -4 -10 -8 -9 -16 2 -15 21
-15 48 0 33 6 -6 17 -9 23 -7z m-4451 -72 c10 -10 -12 -44 -28 -44 -8 0 -18
-6 -22 -13 -10 -18 -60 -30 -68 -18 -3 5 8 18 25 27 16 10 30 26 30 36 0 13 8
18 28 18 16 0 32 -3 35 -6z m3476 -70 c-14 -18 -24 -11 -15 11 3 9 11 13 16
10 8 -5 7 -11 -1 -21z m-3502 -70 c2 -5 -6 -10 -17 -11 -20 -2 -26 8 -13 21 9
8 26 3 30 -10z m4740 -16 c-3 -8 -6 -5 -6 6 -1 11 2 17 5 13 3 -3 4 -12 1 -19z
m-1219 -80 c17 -17 15 -28 -7 -28 -22 0 -35 15 -26 30 8 13 18 13 33 -2z
m-3388 -128 c0 -4 -15 -7 -32 -8 -30 -1 -31 1 -15 13 18 13 47 10 47 -5z m-20
-110 c21 -13 0 -31 -28 -23 -18 4 -20 8 -11 19 13 16 19 17 39 4z m-123 -36
c7 -19 -21 -44 -49 -44 -17 0 -17 2 4 30 25 34 36 37 45 14z m-4012 -44 c-3
-5 -10 -10 -16 -10 -5 0 -9 5 -9 10 0 6 7 10 16 10 8 0 12 -4 9 -10z m9535
-16 c0 -8 -4 -14 -10 -14 -5 0 -10 9 -10 21 0 11 5 17 10 14 6 -3 10 -13 10
-21z m-5772 -26 c17 -17 15 -55 -2 -61 -19 -8 -34 12 -34 46 1 28 16 35 36 15z
m114 -13 c-2 -14 -8 -25 -13 -25 -10 0 -12 34 -2 43 13 14 20 6 15 -18z
m-3942 -26 c0 -28 -2 -30 -16 -18 -10 8 -12 15 -5 17 6 2 11 10 11 18 0 8 2
14 5 14 3 0 5 -14 5 -31z m9820 -25 c0 -2 -7 -4 -15 -4 -8 0 -15 4 -15 10 0 5
7 7 15 4 8 -4 15 -8 15 -10z m-9875 -14 c-10 -11 -13 -20 -7 -20 6 0 14 5 17
10 9 14 25 2 19 -14 -3 -8 -15 -11 -30 -8 -13 2 -31 -1 -39 -8 -32 -26 -26 0
7 29 37 34 61 42 33 11z m9908 3 c-7 -2 -13 -14 -13 -24 0 -11 -4 -18 -9 -15
-15 9 0 46 18 45 10 0 11 -2 4 -6z m-9933 -84 c0 -11 -4 -18 -10 -14 -5 3 -7
12 -3 20 7 21 13 19 13 -6z m3107 -5 c-9 -9 -28 6 -21 18 4 6 10 6 17 -1 6 -6
8 -13 4 -17z m4783 -8 c0 -8 -4 -18 -10 -21 -5 -3 -10 -4 -10 -1 0 2 -3 11 -6
20 -4 11 -1 16 10 16 9 0 16 -6 16 -14z m2142 -30 c4 -19 1 -22 -14 -18 -21 5
-24 28 -5 35 6 3 13 6 13 6 1 1 4 -10 6 -23z m-82 -6 c0 -5 -2 -10 -4 -10 -3
0 -8 5 -11 10 -3 6 -1 10 4 10 6 0 11 -4 11 -10z m480 -190 c0 -5 -4 -10 -9
-10 -6 0 -13 5 -16 10 -3 6 1 10 9 10 9 0 16 -4 16 -10z m-140 -10 c0 -5 -5
-10 -11 -10 -5 0 -7 5 -4 10 3 6 8 10 11 10 2 0 4 -4 4 -10z m-10463 -122 c-3
-8 -6 -5 -6 6 -1 11 2 17 5 13 3 -3 4 -12 1 -19z m-17 -33 c-7 -9 -15 -13 -17
-11 -7 7 7 26 19 26 6 0 6 -6 -2 -15z m7755 -94 c7 -12 -12 -24 -25 -16 -11 7
-4 25 10 25 5 0 11 -4 15 -9z m95 -31 c0 -5 -2 -10 -4 -10 -3 0 -8 5 -11 10
-3 6 -1 10 4 10 6 0 11 -4 11 -10z m-70 -12 c-1 -13 -24 -48 -31 -48 -4 0 -3
47 0 58 3 9 31 0 31 -10z m-3160 -64 c29 -32 33 -44 36 -103 3 -65 3 -66 -7
-21 -22 90 -40 128 -65 134 -13 4 -24 11 -24 16 0 21 28 9 60 -26z m3114 10
c5 -14 4 -15 -9 -4 -17 14 -19 20 -6 20 5 0 12 -7 15 -16z m-4 -34 c0 -5 -4
-10 -10 -10 -5 0 -10 5 -10 10 0 6 5 10 10 10 6 0 10 -4 10 -10z m-7790 -31
c0 -6 -4 -7 -10 -4 -5 3 -10 11 -10 16 0 6 5 7 10 4 6 -3 10 -11 10 -16z
m7820 -133 c0 -20 0 -20 -15 0 -8 10 -14 28 -14 39 0 20 0 20 14 1 8 -11 15
-29 15 -40z m-13 -68 c-3 -7 -5 -2 -5 12 0 14 2 19 5 13 2 -7 2 -19 0 -25z
m4093 -2 c0 -3 -4 -8 -10 -11 -5 -3 -10 -1 -10 4 0 6 5 11 10 11 6 0 10 -2 10
-4z m-7255 -143 c-4 -18 -9 -23 -17 -15 -7 7 -6 20 3 42 16 35 25 16 14 -27z
m7402 -45 c-3 -8 -6 -5 -6 6 -1 11 2 17 5 13 3 -3 4 -12 1 -19z m230 -30 c-3
-8 -6 -5 -6 6 -1 11 2 17 5 13 3 -3 4 -12 1 -19z m-7687 -65 c0 -16 -7 -37
-15 -47 -17 -23 -19 -11 -9 43 8 38 24 41 24 4z m7830 -33 c0 -5 -5 -10 -11
-10 -5 0 -7 5 -4 10 3 6 8 10 11 10 2 0 4 -4 4 -10z m-7880 -181 c-17 -23 -21
-41 -18 -81 2 -37 -1 -52 -11 -56 -9 -3 -11 0 -7 7 4 7 2 18 -4 26 -14 16 -11
38 18 140 32 112 37 118 40 52 2 -46 -1 -64 -18 -88z m-4880 112 c0 -5 -9 -13
-20 -16 -11 -3 -20 -11 -20 -17 0 -6 -3 -8 -7 -5 -3 4 2 16 12 27 19 21 35 26
35 11z m-205 -171 c3 -5 -3 -10 -14 -10 -12 0 -21 5 -21 10 0 6 6 10 14 10 8
0 18 -4 21 -10z m5031 -87 c-3 -3 -13 -2 -23 1 -17 7 -17 8 2 22 18 13 20 13
23 -1 2 -9 1 -19 -2 -22z m-6 -54 c0 -11 5 -17 10 -14 6 4 9 -7 9 -27 -1 -23
-3 -26 -6 -10 -5 27 -23 29 -23 2 0 -11 -4 -20 -10 -20 -5 0 -10 20 -10 45 0
33 4 45 15 45 8 0 15 -9 15 -21z m-5370 -29 c0 -5 -8 -10 -17 -10 -15 0 -16 2
-3 10 19 12 20 12 20 0z m-106 -15 c-4 -8 -10 -15 -15 -15 -5 0 -9 7 -9 15 0
8 7 15 15 15 9 0 12 -6 9 -15z"/>
<path d="M6760 7831 c0 -10 30 -24 37 -17 3 3 2 9 -2 15 -8 13 -35 15 -35 2z"/>
<path d="M6250 7620 c-8 -5 -12 -11 -9 -14 2 -3 11 -1 19 4 8 5 12 11 9 14 -2
3 -11 1 -19 -4z"/>
<path d="M6467 7419 c7 -7 15 -10 18 -7 3 3 -2 9 -12 12 -14 6 -15 5 -6 -5z"/>
<path d="M6320 7379 c0 -5 5 -7 10 -4 6 3 10 8 10 11 0 2 -4 4 -10 4 -5 0 -10
-5 -10 -11z"/>
<path d="M6221 7325 c-18 -19 -31 -40 -29 -45 4 -14 42 14 68 50 31 43 3 39
-39 -5z"/>
<path d="M6358 7333 c7 -3 16 -2 19 1 4 3 -2 6 -13 5 -11 0 -14 -3 -6 -6z"/>
<path d="M6395 7311 c-40 -7 -40 -7 -15 -20 28 -14 86 1 75 19 -3 5 -9 9 -13
9 -4 -1 -25 -5 -47 -8z"/>
<path d="M6246 7284 c-28 -28 -33 -44 -15 -44 6 0 13 9 16 20 3 11 12 20 19
20 8 0 14 7 14 15 0 20 -3 19 -34 -11z"/>
<path d="M6335 7270 c3 -5 8 -10 11 -10 2 0 4 5 4 10 0 6 -5 10 -11 10 -5 0
-7 -4 -4 -10z"/>
<path d="M6120 7240 c0 -5 5 -10 10 -10 6 0 10 5 10 10 0 6 -4 10 -10 10 -5 0
-10 -4 -10 -10z"/>
<path d="M6170 7230 c0 -5 4 -10 9 -10 6 0 13 5 16 10 3 6 -1 10 -9 10 -9 0
-16 -4 -16 -10z"/>
<path d="M6007 7206 c-4 -10 0 -12 14 -9 10 3 16 9 13 14 -8 13 -21 11 -27 -5z"/>
<path d="M6844 7205 c-45 -19 -52 -35 -15 -35 20 0 31 5 31 14 0 8 8 16 18 18
9 2 12 6 7 10 -6 3 -24 0 -41 -7z"/>
<path d="M6373 7192 c-29 -4 -30 -28 -2 -37 25 -8 32 -3 27 22 -2 12 -10 17
-25 15z"/>
<path d="M5755 7110 c-3 -5 1 -10 10 -10 9 0 13 5 10 10 -3 6 -8 10 -10 10 -2
0 -7 -4 -10 -10z"/>
<path d="M5980 7094 c0 -14 4 -23 10 -19 6 3 10 15 10 26 0 10 -4 19 -10 19
-5 0 -10 -12 -10 -26z"/>
<path d="M5775 6560 c-3 -5 -1 -10 4 -10 6 0 11 5 11 10 0 6 -2 10 -4 10 -3 0
-8 -4 -11 -10z"/>
<path d="M7460 5590 c0 -5 5 -10 10 -10 6 0 10 5 10 10 0 6 -4 10 -10 10 -5 0
-10 -4 -10 -10z"/>
<path d="M7465 5460 c-3 -5 3 -10 14 -10 11 0 23 5 26 10 3 6 -3 10 -14 10
-11 0 -23 -4 -26 -10z"/>
<path d="M7530 5461 c0 -6 7 -11 15 -11 8 0 15 -4 15 -10 0 -5 7 -10 16 -10 9
0 14 7 12 18 -3 19 -58 31 -58 13z"/>
<path d="M7437 5444 c-4 -4 -7 -14 -7 -23 0 -13 2 -14 9 -2 6 10 20 12 45 8
20 -3 36 -2 36 4 0 5 -11 9 -24 9 -13 0 -31 2 -38 5 -8 3 -17 2 -21 -1z"/>
<path d="M7592 5418 c-8 -8 -9 -15 -1 -25 16 -19 29 -16 29 6 0 25 -13 34 -28
19z"/>
<path d="M7876 5493 c-11 -11 -6 -23 9 -23 8 0 15 4 15 9 0 13 -16 22 -24 14z"/>
<path d="M5596 5095 c-9 -26 -7 -32 5 -12 6 10 9 21 6 23 -2 3 -7 -2 -11 -11z"/>
<path d="M5580 5050 c0 -5 5 -10 11 -10 5 0 7 5 4 10 -3 6 -8 10 -11 10 -2 0
-4 -4 -4 -10z"/>
<path d="M5717 4784 c-4 -4 -7 -21 -7 -38 l1 -31 15 29 c15 26 8 56 -9 40z"/>
<path d="M2278 3103 c7 -3 16 -2 19 1 4 3 -2 6 -13 5 -11 0 -14 -3 -6 -6z"/>
<path d="M2368 3093 c7 -3 16 -2 19 1 4 3 -2 6 -13 5 -11 0 -14 -3 -6 -6z"/>
<path d="M6238 9573 c-3 -4 1 -28 8 -53 10 -36 12 -39 13 -18 1 25 5 28 34 27
17 -1 43 2 57 6 19 5 22 4 10 -4 -13 -10 -13 -11 0 -12 28 -2 144 -7 330 -13
102 -3 235 -13 295 -22 118 -17 177 -11 183 18 3 14 -15 17 -115 22 -197 11
-675 44 -754 52 -31 3 -59 2 -61 -3z"/>
<path d="M2000 9552 c0 -6 21 -13 48 -16 62 -8 342 -25 517 -32 77 -3 156 -7
175 -10 19 -3 94 -9 165 -14 72 -5 157 -12 190 -14 62 -5 261 -15 422 -21 50
-1 104 -6 120 -9 15 -3 96 -8 178 -11 108 -5 154 -11 166 -21 19 -17 46 -18
52 -1 4 9 8 9 15 -2 7 -10 28 -12 89 -9 75 5 135 1 288 -22 169 -24 390 -37
419 -25 15 6 17 5 11 -5 -6 -10 -2 -11 18 -6 14 3 27 1 29 -4 2 -6 61 -11 145
-13 87 -1 143 -6 143 -12 0 -5 4 -4 9 4 6 9 11 10 15 2 4 -6 15 -11 24 -11 15
0 15 2 2 10 -13 9 -13 10 0 10 9 0 20 -4 25 -8 17 -15 154 -35 168 -24 14 10
73 9 197 -6 149 -18 360 -24 360 -9 0 8 3 8 9 -2 5 -7 13 -11 19 -7 6 3 13 2
17 -4 9 -15 25 -12 25 5 0 18 11 19 29 3 11 -10 14 -10 18 0 7 17 33 15 33 -3
0 -8 7 -15 16 -15 10 0 14 7 12 23 -3 22 -7 22 -313 44 -450 31 -619 42 -810
53 -331 19 -559 34 -795 50 -80 6 -271 17 -425 25 -154 8 -347 20 -430 25 -82
6 -229 15 -325 20 -96 6 -204 12 -240 15 -167 11 -412 26 -585 35 -104 6 -202
13 -217 16 -17 4 -28 2 -28 -4z"/>
<path d="M0 9513 c0 -8 14 -13 38 -13 20 -1 71 -3 112 -6 41 -2 163 -9 270
-14 107 -4 206 -11 220 -14 14 -4 98 -8 187 -11 90 -2 167 -6 171 -9 5 -3 38
-2 73 2 58 7 50 9 -96 17 -88 4 -178 10 -200 11 -22 1 -128 7 -235 13 -107 6
-233 15 -280 21 -134 16 -260 17 -260 3z"/>
<path d="M7198 9482 c4 -34 35 -61 48 -41 11 18 225 4 236 -15 15 -27 38 -6
38 35 l0 39 -108 0 c-60 0 -112 3 -116 8 -4 4 -29 7 -55 7 l-46 0 3 -33z"/>
<path d="M6237 9447 c-8 -21 5 -107 15 -107 6 0 7 7 4 16 -7 19 19 60 28 45 4
-6 35 -10 69 -11 106 0 231 -12 244 -22 7 -5 21 -7 33 -3 12 4 20 2 20 -5 0
-7 7 -9 16 -6 9 4 87 1 173 -5 186 -15 310 -14 325 1 19 19 -11 27 -132 34
-245 14 -281 16 -412 26 -74 5 -183 12 -243 16 -71 4 -112 11 -121 20 -11 11
-15 11 -19 1z"/>
<path d="M1220 9439 c66 -11 109 -11 90 1 -8 5 -42 9 -75 9 l-60 -2 45 -8z"/>
<path d="M1477 9431 c35 -16 203 -25 203 -12 0 6 -15 10 -32 9 -18 -1 -69 1
-113 5 -55 5 -73 4 -58 -2z"/>
<path d="M1701 9416 c3 -3 64 -8 135 -11 71 -3 167 -11 214 -17 77 -10 222
-18 325 -17 22 0 82 -5 135 -12 108 -13 237 -17 252 -8 10 7 -64 14 -232 24
-52 3 -185 12 -295 20 -243 17 -542 29 -534 21z"/>
<path d="M14 9355 c23 -17 66 -20 66 -4 0 6 5 7 13 2 6 -4 37 -8 67 -10 30 -1
78 -5 105 -7 28 -3 137 -7 243 -10 105 -3 213 -11 240 -17 26 -6 70 -9 97 -8
28 1 88 0 135 -4 47 -4 144 -9 215 -12 72 -2 141 -7 155 -10 14 -3 18 -2 10 1
-8 4 -17 10 -20 14 -3 4 -70 10 -150 13 -80 3 -158 8 -175 11 -16 4 -131 11
-255 18 -315 16 -339 17 -485 27 -72 5 -164 9 -205 10 -68 0 -73 -1 -56 -14z"/>
<path d="M2785 9348 c5 -12 23 -16 78 -17 133 -1 341 -13 427 -23 47 -5 162
-13 255 -18 94 -4 175 -9 180 -11 6 -1 20 1 33 5 12 4 22 4 22 -1 0 -4 21 -8
48 -9 115 -1 286 -17 267 -25 -11 -4 -15 -8 -8 -8 6 -1 23 3 37 9 14 5 33 7
43 3 15 -6 15 -7 -2 -13 -10 -3 46 -7 125 -8 78 -1 147 -5 154 -9 6 -4 76 -8
156 -8 99 -1 153 -5 169 -14 19 -11 25 -11 32 0 7 12 9 12 9 0 0 -9 7 -11 21
-8 11 3 32 1 47 -3 38 -13 153 -19 178 -9 13 4 26 3 32 -3 8 -8 74 -12 184
-13 103 -1 187 -6 208 -13 20 -7 63 -14 95 -16 33 -3 71 -7 85 -11 20 -6 22
-5 10 5 -13 10 -12 11 5 5 11 -4 81 -9 155 -10 126 -3 171 -6 277 -20 35 -5
44 -3 52 14 14 26 15 73 1 51 -8 -13 -47 -12 -322 3 -172 10 -405 25 -518 32
-343 24 -497 34 -695 45 -104 5 -334 19 -510 30 -176 11 -439 27 -585 35 -258
15 -501 30 -668 42 -72 5 -82 4 -77 -9z"/>
<path d="M1400 9282 c8 -6 98 -12 200 -15 102 -3 173 -2 159 2 -38 12 -377 23
-359 13z"/>
<path d="M1894 9250 c16 -5 80 -10 143 -11 68 -2 108 -6 101 -12 -13 -8 1 -6
52 9 12 3 27 1 33 -5 16 -13 264 -25 271 -13 3 5 -41 12 -97 15 -56 4 -129 9
-162 11 -144 11 -369 15 -341 6z"/>
<path d="M7097 9223 c-10 -9 -9 -23 1 -23 5 0 17 7 28 15 19 14 19 14 -2 15
-11 0 -24 -3 -27 -7z"/>
<path d="M0 9204 c0 -14 3 -15 18 -3 9 7 19 15 21 16 2 2 -5 3 -17 3 -14 0
-22 -6 -22 -16z"/>
<path d="M38 9207 c-10 -8 -18 -17 -18 -21 0 -4 69 -6 153 -5 83 1 172 -2 197
-5 25 -4 113 -9 195 -11 83 -1 171 -7 197 -12 26 -6 111 -11 190 -12 79 -1
159 -4 178 -6 34 -4 199 -12 415 -20 227 -9 632 -36 673 -45 23 -6 95 -10 160
-10 64 0 168 -5 231 -10 68 -6 118 -7 124 -1 5 5 -17 11 -55 15 -153 16 -311
26 -408 26 -58 0 -148 5 -200 10 -111 10 -366 26 -675 40 -122 6 -231 12 -243
15 -13 2 -91 7 -175 10 -84 3 -246 12 -362 20 -116 8 -271 17 -345 20 -74 3
-153 8 -175 11 -25 3 -46 -1 -57 -9z"/>
<path d="M2580 9209 c71 -9 208 -18 330 -23 202 -9 440 -26 570 -42 19 -2 109
-6 200 -8 91 -3 235 -12 320 -22 85 -9 176 -16 202 -16 26 0 45 -4 42 -9 -8
-13 20 -11 34 3 9 9 21 9 51 0 21 -7 47 -9 57 -5 11 4 15 3 10 -5 -4 -7 10 -9
49 -5 39 4 55 2 55 -6 0 -9 18 -10 70 -5 39 4 70 3 70 -2 0 -5 33 -10 73 -12
101 -4 163 -9 230 -20 32 -5 80 -5 110 -1 34 6 61 5 79 -2 16 -6 37 -9 48 -6
11 3 18 1 14 -4 -3 -5 -1 -9 5 -9 5 0 13 5 16 10 8 12 42 13 47 1 3 -9 125
-21 258 -26 36 -1 67 -3 70 -5 14 -6 106 -4 97 2 -7 4 13 8 43 8 35 0 50 -3
41 -9 -11 -7 -10 -10 6 -15 11 -4 33 -7 49 -7 16 0 45 -1 64 -1 19 -1 67 1
105 4 46 3 83 0 109 -9 42 -14 56 -7 56 28 0 14 -20 17 -132 23 -73 4 -187 11
-253 16 -110 9 -326 23 -1030 65 -137 9 -329 20 -425 25 -96 6 -281 17 -410
25 -129 8 -323 19 -430 25 -107 5 -220 12 -250 15 -105 10 -586 35 -655 34
l-70 -2 75 -8z"/>
<path d="M0 9053 c0 -18 14 -20 233 -31 127 -7 318 -14 424 -17 106 -3 212 -9
235 -14 24 -6 104 -10 178 -10 74 0 168 -4 208 -9 41 -6 99 -8 129 -5 41 5 54
3 49 -5 -4 -7 -1 -12 8 -12 9 0 16 5 16 10 0 6 7 10 16 10 8 0 12 -4 9 -10 -4
-6 18 -10 57 -11 159 -1 371 -8 453 -14 50 -3 153 -10 230 -15 77 -5 172 -12
210 -15 123 -10 260 -10 265 0 3 6 -49 13 -140 17 -80 4 -217 12 -305 18 -88
6 -252 15 -365 20 -113 6 -306 17 -430 25 -124 9 -326 20 -450 25 -124 5 -277
14 -340 19 -63 6 -221 15 -350 21 -129 6 -259 13 -287 16 -48 6 -53 4 -53 -13z"/>
<path d="M2764 9051 c5 -7 99 -17 271 -27 33 -1 134 -8 225 -13 91 -6 217 -13
280 -16 63 -3 171 -9 240 -15 69 -5 142 -10 163 -10 23 0 36 -4 32 -10 -4 -6
25 -10 82 -9 159 1 294 -7 301 -18 5 -8 39 -10 99 -8 63 3 107 -1 145 -12 29
-9 91 -17 138 -19 47 -2 121 -6 165 -9 44 -3 128 -8 188 -11 59 -4 107 -10
107 -13 0 -3 62 -6 138 -6 75 0 146 -4 157 -9 24 -9 75 -13 308 -21 98 -3 193
-8 210 -11 63 -11 128 -9 138 3 18 21 -6 51 -37 45 -15 -3 -84 0 -153 7 -69 6
-207 16 -306 22 -99 5 -207 12 -240 14 -33 3 -143 9 -245 15 -102 6 -248 15
-325 20 -77 5 -232 14 -345 20 -113 6 -349 19 -525 30 -176 11 -403 24 -505
30 -102 6 -293 17 -425 25 -293 17 -287 17 -281 6z m1263 -87 c-3 -3 -12 -4
-19 -1 -8 3 -5 6 6 6 11 1 17 -2 13 -5z"/>
<path d="M1408 8953 c7 -3 16 -2 19 1 4 3 -2 6 -13 5 -11 0 -14 -3 -6 -6z"/>
<path d="M6232 8910 c0 -14 2 -19 5 -12 2 6 2 18 0 25 -3 6 -5 1 -5 -13z"/>
<path d="M2745 8900 c-3 -5 -5 -10 -3 -11 8 -2 83 -7 173 -13 55 -3 127 -8
160 -11 33 -3 121 -8 195 -10 74 -3 196 -9 270 -14 74 -5 139 -6 144 -3 5 3 6
0 2 -6 -5 -9 11 -12 56 -13 71 -1 183 -4 243 -7 25 -2 35 -5 27 -10 -7 -5 48
-8 123 -8 74 1 135 -1 135 -5 0 -3 24 -4 53 -4 28 1 58 -2 65 -8 6 -5 12 -5
12 -1 0 10 84 7 110 -3 19 -8 57 -11 210 -18 68 -4 129 -10 135 -14 13 -11 90
-15 247 -16 69 0 124 -3 121 -7 -2 -5 8 -8 24 -8 15 0 60 -3 98 -5 39 -3 117
-7 175 -10 95 -4 172 -11 370 -31 71 -8 83 -8 150 -5 25 1 60 -1 78 -5 29 -6
32 -4 32 20 0 14 -8 29 -17 34 -10 5 -97 12 -193 16 -96 4 -229 11 -295 17
-113 9 -454 30 -1060 64 -144 8 -333 19 -420 25 -88 5 -248 14 -355 20 -107 5
-260 14 -340 19 -80 6 -237 15 -350 21 -113 6 -242 13 -287 16 -51 3 -84 1
-88 -6z m2545 -170 c13 -8 13 -10 -2 -10 -9 0 -20 5 -23 10 -8 13 5 13 25 0z"/>
<path d="M8186 8865 c-3 -8 -1 -15 4 -15 6 0 10 7 10 15 0 8 -2 15 -4 15 -2 0
-6 -7 -10 -15z"/>
<path d="M0 8735 c0 -23 3 -25 49 -25 27 0 64 -3 82 -6 27 -4 31 -3 19 6 -12
9 -10 10 10 4 14 -4 52 -9 85 -10 33 -1 130 -6 215 -10 85 -5 206 -8 268 -9
61 0 112 -3 112 -7 0 -3 36 -4 81 -1 61 5 83 3 89 -7 7 -11 68 -14 284 -16
151 -1 280 -5 286 -9 21 -13 82 -15 123 -4 27 7 43 7 45 1 1 -5 12 -8 22 -5
11 3 79 0 152 -7 178 -17 176 -17 393 -25 105 -3 197 -9 205 -12 8 -3 50 -7
93 -8 60 -2 77 0 77 11 0 11 -16 14 -64 14 -35 0 -149 6 -252 14 -104 8 -290
20 -414 26 -124 6 -288 15 -365 20 -77 5 -203 12 -280 15 -77 3 -243 12 -370
20 -126 8 -374 22 -550 30 -176 8 -337 18 -357 20 -35 5 -38 3 -38 -20z m1173
-62 c-7 -2 -19 -2 -25 0 -7 3 -2 5 12 5 14 0 19 -2 13 -5z"/>
<path d="M8530 8649 c0 -5 5 -7 10 -4 6 3 10 8 10 11 0 2 -4 4 -10 4 -5 0 -10
-5 -10 -11z"/>
<path d="M0 8576 c0 -30 29 -38 122 -36 35 1 144 -2 243 -7 99 -6 198 -10 220
-10 112 -1 413 -14 435 -18 14 -3 126 -8 250 -11 350 -9 412 -12 460 -18 25
-4 119 -9 210 -12 314 -9 365 -11 485 -18 76 -4 122 -11 127 -19 6 -9 12 -9
29 1 11 7 33 11 47 8 15 -3 33 -2 40 3 22 14 -137 26 -658 51 -124 6 -333 17
-465 25 -132 8 -303 17 -380 20 -77 3 -185 10 -240 15 -55 5 -172 12 -260 15
-88 3 -266 12 -395 20 -296 19 -270 20 -270 -9z"/>
<path d="M8610 8531 c0 -5 5 -13 10 -16 6 -3 10 -2 10 4 0 5 -4 13 -10 16 -5
3 -10 2 -10 -4z"/>
<path d="M4298 8473 c7 -3 16 -2 19 1 4 3 -2 6 -13 5 -11 0 -14 -3 -6 -6z"/>
<path d="M0 8410 c0 -30 0 -30 58 -31 61 -2 70 -2 262 -12 379 -20 617 -24
677 -12 23 5 37 3 48 -9 18 -17 33 -18 112 -7 29 4 56 4 61 -1 12 -12 142 -16
149 -5 3 5 8 5 12 0 7 -12 101 -24 101 -13 0 12 54 19 65 9 7 -7 4 -8 -7 -4
-11 5 -18 2 -18 -5 0 -8 38 -11 143 -9 78 2 148 -1 155 -5 7 -4 20 -2 28 5 13
10 17 10 24 -1 6 -9 22 -11 56 -7 50 5 315 -16 347 -28 10 -4 17 -3 17 4 0 9
32 10 118 5 169 -11 236 -10 242 1 3 6 -10 11 -30 11 -19 1 -109 7 -200 13
-91 6 -257 16 -370 21 -113 6 -279 15 -370 20 -173 10 -269 15 -485 25 -71 3
-179 10 -240 15 -60 5 -182 12 -270 15 -88 3 -230 10 -315 15 -85 5 -203 12
-262 15 l-108 6 0 -31z"/>
<path d="M998 8343 c7 -3 16 -2 19 1 4 3 -2 6 -13 5 -11 0 -14 -3 -6 -6z"/>
<path d="M8685 8319 c-11 -35 11 -44 23 -10 9 25 8 31 -3 31 -7 0 -17 -9 -20
-21z"/>
<path d="M0 8248 l0 -34 102 -2 c56 0 191 -6 300 -13 154 -9 201 -9 213 1 8 6
19 9 24 6 13 -8 80 -15 226 -21 66 -3 156 -7 200 -10 44 -3 139 -7 210 -10 72
-3 156 -8 188 -11 36 -3 57 -1 57 6 0 6 25 10 63 9 45 0 57 -3 42 -9 -13 -6
33 -9 127 -7 80 1 145 0 142 -4 -2 -3 26 -4 61 -1 41 3 65 1 65 -6 0 -6 -3
-12 -7 -15 -5 -2 -1 -2 7 1 13 4 48 5 130 2 14 0 63 0 110 0 47 1 108 -4 134
-10 27 -6 85 -8 132 -5 61 4 84 3 84 -6 0 -8 4 -8 15 1 35 29 24 30 -395 49
-124 6 -283 15 -355 21 -71 5 -222 14 -335 20 -662 34 -943 49 -1115 60 -88 5
-220 12 -292 16 l-133 7 0 -35z"/>
<path d="M8747 8274 c-14 -14 -7 -25 13 -22 12 2 21 8 21 13 0 12 -24 18 -34
9z"/>
<path d="M1568 8153 c7 -3 16 -2 19 1 4 3 -2 6 -13 5 -11 0 -14 -3 -6 -6z"/>
<path d="M4705 8130 c3 -5 8 -10 11 -10 2 0 4 5 4 10 0 6 -5 10 -11 10 -5 0
-7 -4 -4 -10z"/>
<path d="M0 8087 l0 -36 113 -4 c61 -3 224 -7 360 -11 137 -4 284 -10 328 -14
57 -6 85 -5 97 4 12 9 20 8 35 -7 14 -13 29 -17 51 -13 34 6 33 6 186 5 137 0
200 -1 225 -3 11 0 36 0 55 0 32 2 110 -1 394 -11 70 -3 101 -8 107 -18 6 -10
11 -11 17 -3 4 6 29 9 57 7 28 -2 63 -3 79 -3 16 0 33 -5 37 -12 7 -11 12 -11
29 0 16 10 25 10 35 2 7 -6 16 -7 19 -2 2 4 37 5 77 1 40 -5 119 -7 176 -5 75
2 103 0 103 -9 0 -19 28 -14 33 7 4 13 -1 18 -16 19 -12 0 -33 2 -47 4 -14 3
-176 11 -360 20 -184 8 -393 20 -465 25 -71 5 -193 12 -270 15 -77 3 -257 12
-400 20 -143 8 -397 22 -565 30 -168 9 -347 18 -397 22 l-93 6 0 -36z"/>
<path d="M3278 8063 c6 -2 18 -2 25 0 6 3 1 5 -13 5 -14 0 -19 -2 -12 -5z"/>
<path d="M7800 8011 c0 -12 29 -23 41 -15 5 3 7 10 4 15 -8 12 -45 12 -45 0z"/>
<path d="M1658 7993 c7 -3 16 -2 19 1 4 3 -2 6 -13 5 -11 0 -14 -3 -6 -6z"/>
<path d="M4560 7990 c0 -5 5 -10 11 -10 5 0 7 5 4 10 -3 6 -8 10 -11 10 -2 0
-4 -4 -4 -10z"/>
<path d="M1880 7980 c0 -5 7 -10 16 -10 8 0 12 5 9 10 -3 6 -10 10 -16 10 -5
0 -9 -4 -9 -10z"/>
<path d="M0 7925 c0 -31 3 -35 33 -40 17 -3 55 -4 82 -3 28 1 129 -1 225 -5
96 -4 256 -9 355 -12 204 -7 320 -13 351 -21 12 -3 25 -1 29 5 3 6 12 8 18 4
22 -14 334 -19 435 -7 35 4 52 2 52 -5 0 -13 47 -15 52 -2 3 10 161 -2 192
-15 15 -6 17 -4 11 7 -7 10 -3 10 16 -2 20 -14 28 -14 42 -5 11 9 33 10 74 5
32 -5 84 -9 116 -10 32 -1 60 -6 63 -11 3 -4 16 -8 30 -8 14 0 22 4 19 10 -4
6 9 10 32 9 28 0 33 -2 19 -8 -18 -7 -18 -8 -3 -14 10 -4 28 -2 41 3 21 8 261
7 295 -2 7 -1 15 2 18 8 5 14 -65 21 -357 34 -124 6 -290 15 -370 20 -80 5
-248 14 -375 20 -126 6 -304 15 -395 21 -91 5 -259 14 -375 19 -115 5 -244 12
-285 14 -41 3 -145 8 -230 11 -85 3 -167 8 -182 10 -26 4 -28 2 -28 -30z"/>
<path d="M2630 7810 c0 -16 14 -18 170 -25 80 -4 159 -8 175 -9 17 -1 71 -3
120 -4 61 -2 85 -5 75 -12 -10 -6 33 -8 122 -6 76 1 140 0 143 -3 3 -3 37 -5
76 -6 51 0 72 -4 79 -15 8 -13 10 -13 10 2 0 14 5 15 29 8 16 -4 32 -6 35 -3
2 3 62 2 133 -2 70 -5 122 -10 116 -12 -28 -10 -11 -21 20 -13 46 13 117 9
117 -7 0 -7 8 -13 18 -12 10 0 12 3 4 6 -6 2 -10 9 -6 14 8 13 34 11 31 -3 -1
-6 7 -14 17 -16 14 -3 17 0 13 11 -5 12 1 14 31 11 20 -2 84 -6 142 -9 58 -3
142 -7 187 -10 45 -4 126 -8 180 -10 222 -9 360 -15 398 -20 84 -9 410 -17
402 -9 -11 12 -22 13 -257 24 -322 15 -579 29 -630 35 -25 2 -155 9 -290 15
-135 6 -259 13 -277 15 -17 3 -134 9 -260 15 -125 5 -302 14 -393 20 -166 10
-234 13 -455 24 -66 4 -155 9 -197 11 -51 4 -78 2 -78 -5z"/>
<path d="M0 7756 c0 -36 1 -36 43 -37 23 -1 47 -2 52 -4 6 -1 15 -3 20 -4 25
-6 144 -3 155 4 7 4 15 2 19 -4 5 -8 83 -13 257 -17 210 -4 348 -5 373 -2 3 0
8 -1 11 -2 28 -12 498 -21 505 -10 9 14 25 12 25 -2 0 -8 15 -13 40 -13 26 -1
40 3 40 12 0 15 26 18 35 3 3 -5 33 -7 71 -3 40 4 69 2 72 -4 11 -15 62 -25
62 -12 0 8 32 10 113 5 61 -3 129 -6 150 -6 21 0 36 -3 34 -7 -3 -5 49 -7 115
-5 66 2 128 0 137 -4 9 -4 60 -7 114 -8 74 -1 100 -5 107 -16 10 -17 15 -14
24 16 6 20 2 21 -91 28 -106 7 -348 20 -673 36 -113 5 -248 12 -300 15 -52 3
-183 10 -290 15 -107 5 -278 14 -380 19 -102 6 -295 15 -430 21 -135 6 -282
13 -327 17 l-83 6 0 -37z"/>
<path d="M2953 7753 c9 -2 23 -2 30 0 6 3 -1 5 -18 5 -16 0 -22 -2 -12 -5z"/>
<path d="M3118 7753 c7 -3 16 -2 19 1 4 3 -2 6 -13 5 -11 0 -14 -3 -6 -6z"/>
<path d="M1648 7663 c7 -3 16 -2 19 1 4 3 -2 6 -13 5 -11 0 -14 -3 -6 -6z"/>
<path d="M2611 7647 c0 -7 4 -21 8 -32 8 -19 8 -19 16 4 4 13 10 20 14 15 3
-5 29 -9 56 -9 83 -1 436 -16 500 -21 33 -3 114 -7 180 -9 65 -2 121 -7 122
-12 2 -4 49 -7 105 -5 57 2 162 -1 233 -7 131 -10 248 -16 515 -25 80 -3 154
-7 165 -10 11 -3 128 -8 260 -11 132 -3 267 -8 300 -10 33 -2 112 -5 177 -7
64 -2 115 -5 113 -8 -2 -3 10 -5 26 -6 51 -2 31 14 -23 20 -29 3 -199 12 -378
21 -322 15 -519 25 -885 46 -104 5 -275 14 -380 19 -104 5 -226 12 -270 14
-44 3 -125 8 -180 11 -326 16 -510 26 -587 29 -64 4 -88 1 -87 -7z"/>
<path d="M0 7592 c0 -19 5 -32 13 -32 9 0 9 -2 0 -8 -6 -4 50 -8 125 -10 76
-2 168 -5 206 -8 38 -2 150 -6 248 -9 149 -3 180 -1 185 11 3 8 10 14 15 14 6
0 5 -6 -2 -15 -11 -13 -4 -15 56 -17 38 -1 89 -3 114 -3 25 -1 53 2 62 7 10 5
18 4 20 -3 4 -12 335 -15 381 -4 15 4 27 3 27 -2 0 -5 34 -10 75 -11 41 0 75
2 75 7 0 4 12 6 28 5 15 -2 74 -5 130 -7 57 -2 107 -8 110 -13 4 -6 50 -8 117
-4 133 8 509 -7 513 -21 2 -5 9 -6 15 -2 7 4 20 7 29 8 25 0 27 20 3 22 -45 4
-430 23 -560 28 -77 3 -207 10 -290 15 -82 5 -251 14 -375 20 -124 6 -308 15
-410 21 -170 10 -327 17 -752 35 l-158 7 0 -31z"/>
<path d="M8156 7505 c4 -8 8 -15 10 -15 2 0 4 7 4 15 0 8 -4 15 -10 15 -5 0
-7 -7 -4 -15z"/>
<path d="M2585 7490 c-2 -3 5 -17 16 -30 14 -18 19 -21 19 -9 0 13 12 16 73
14 40 -1 77 -4 82 -7 6 -3 87 -7 180 -8 94 -1 184 -4 200 -6 46 -6 137 -12
290 -18 357 -15 411 -18 423 -28 8 -7 16 -7 25 1 8 6 42 9 88 6 41 -3 119 -7
174 -10 55 -3 123 -7 150 -9 58 -5 238 -14 440 -21 115 -5 253 -13 283 -16 22
-3 215 2 211 5 -2 2 -110 9 -239 15 -129 7 -260 14 -290 16 -30 3 -194 12
-365 20 -170 8 -337 17 -370 20 -33 3 -206 12 -385 20 -179 8 -446 21 -595 30
-349 19 -406 21 -410 15z"/>
<path d="M0 7421 c0 -37 2 -41 26 -41 14 0 33 -4 43 -10 15 -7 251 -12 586
-11 49 1 91 -5 103 -12 7 -5 19 -4 27 3 10 8 36 10 82 5 37 -4 104 -8 148 -10
44 -1 107 -6 140 -10 50 -6 63 -4 74 9 17 20 32 21 25 1 -5 -12 3 -15 41 -15
25 0 44 4 41 9 -6 9 123 21 138 13 6 -3 57 -6 115 -7 59 0 112 -4 119 -9 7 -4
18 -4 25 2 7 5 51 5 117 -2 58 -7 96 -15 85 -18 -16 -4 -14 -6 8 -7 16 0 26 3
22 8 -10 17 13 21 29 5 9 -8 16 -11 16 -5 0 6 20 11 48 11 73 0 152 -12 146
-21 -3 -5 4 -9 15 -9 10 0 21 6 24 13 3 9 7 9 17 0 8 -8 20 -9 36 -3 17 7 24
6 24 -3 0 -8 4 -7 11 3 6 9 12 11 15 4 3 -6 35 -9 84 -8 45 2 80 -1 80 -7 0
-17 18 -9 23 10 4 18 -3 20 -92 25 -53 3 -166 10 -251 16 -85 5 -308 17 -495
25 -187 9 -416 20 -510 25 -171 10 -707 35 -950 45 -72 3 -154 8 -182 11 l-53
6 0 -41z m1217 -57 c-3 -3 -12 -4 -19 -1 -8 3 -5 6 6 6 11 1 17 -2 13 -5z"/>
<path d="M5310 7346 c0 -10 28 -13 41 -5 10 6 7 9 -13 9 -16 0 -28 -2 -28 -4z"/>
<path d="M5370 7340 c0 -5 10 -10 23 -10 18 0 19 2 7 10 -19 13 -30 13 -30 0z"/>
<path d="M2570 7307 c0 -30 17 -45 26 -23 5 13 24 14 112 11 162 -6 414 -16
536 -21 60 -2 130 -6 155 -9 85 -10 569 -31 659 -29 23 1 42 -1 42 -5 0 -3 28
-6 62 -6 91 0 445 -14 643 -26 94 -5 211 -11 260 -14 50 -3 106 -1 125 4 30 8
24 9 -40 10 -41 1 -147 5 -235 11 -169 10 -678 36 -880 45 -66 3 -194 10 -285
15 -91 6 -304 17 -475 25 -170 9 -337 17 -370 20 -33 2 -122 7 -197 11 l-138
7 0 -26z"/>
<path d="M2108 7303 c18 -2 45 -2 60 0 15 2 0 4 -33 4 -33 0 -45 -2 -27 -4z"/>
<path d="M0 7240 l0 -50 38 0 c20 0 201 -3 402 -6 476 -6 496 -6 554 1 26 4
46 3 43 -2 -3 -4 44 -8 105 -9 61 0 103 3 96 7 -9 6 -8 9 7 9 11 1 44 3 74 6
50 4 53 3 48 -16 -4 -15 0 -20 15 -20 15 0 18 5 13 20 -8 24 3 25 53 4 20 -8
57 -17 82 -19 25 -2 52 -6 60 -9 9 -4 35 0 59 9 24 8 58 14 75 14 30 -2 30 -2
4 -6 -40 -6 -35 -24 6 -21 26 1 33 6 28 17 -4 12 -2 13 7 5 7 -6 25 -9 42 -5
16 3 84 3 152 -1 67 -3 181 -9 252 -13 72 -4 136 -12 143 -18 8 -6 16 -7 23 0
12 12 112 0 117 -15 7 -22 20 -12 24 18 l5 30 -56 0 c-31 1 -126 5 -211 10
-85 5 -261 14 -390 20 -129 6 -363 17 -520 25 -157 9 -429 22 -605 30 -176 8
-345 17 -375 20 -30 2 -126 7 -212 9 l-158 6 0 -50z"/>
<path d="M2763 7273 c9 -2 23 -2 30 0 6 3 -1 5 -18 5 -16 0 -22 -2 -12 -5z"/>
<path d="M8021 7241 c-10 -6 -10 -10 -1 -16 13 -8 24 -1 19 14 -3 6 -10 7 -18
2z"/>
<path d="M5253 7184 c10 -11 108 -14 102 -4 -3 6 -29 10 -57 10 -28 0 -49 -3
-45 -6z"/>
<path d="M1260 7170 c0 -5 5 -10 10 -10 6 0 10 5 10 10 0 6 -4 10 -10 10 -5 0
-10 -4 -10 -10z"/>
<path d="M2554 7155 c3 -9 6 -26 6 -38 1 -22 1 -22 16 -2 13 18 25 19 162 17
81 -2 179 -5 217 -7 39 -3 126 -7 195 -10 243 -9 346 -15 465 -25 66 -6 190
-12 275 -15 85 -2 178 -6 205 -8 28 -3 154 -8 280 -12 127 -4 246 -9 265 -10
80 -7 495 -17 490 -13 -3 3 -81 8 -175 12 -208 8 -517 24 -605 31 -36 3 -175
10 -310 15 -135 6 -294 14 -355 20 -60 5 -236 14 -390 20 -154 6 -305 13 -335
15 -30 2 -116 7 -190 10 -74 3 -155 8 -179 11 -38 5 -43 3 -37 -11z"/>
<path d="M0 7076 l0 -44 138 0 c189 0 232 -2 232 -12 0 -12 403 -10 417 2 8 6
19 6 32 -1 23 -13 269 -21 273 -10 2 5 23 3 48 -2 42 -10 157 -8 190 3 8 3 12
3 7 1 -14 -9 4 -23 30 -23 21 0 24 2 13 15 -7 8 -8 15 -2 15 5 0 15 -7 22 -15
14 -17 80 -21 80 -5 0 6 40 10 100 10 82 0 100 -3 100 -15 0 -8 9 -15 20 -15
14 0 18 5 13 16 -5 14 3 15 68 11 91 -7 87 -5 69 -17 -12 -8 -9 -10 12 -10 14
0 28 5 30 11 3 8 51 9 171 4 92 -4 165 -10 163 -14 -7 -11 258 -5 278 6 22 12
28 12 -539 38 -181 9 -413 20 -515 25 -751 38 -750 38 -970 46 -96 3 -213 10
-260 15 -47 5 -115 9 -152 9 l-68 0 0 -44z m1270 -56 c-19 -13 -30 -13 -30 0
0 6 10 10 23 10 18 0 19 -2 7 -10z m185 0 c4 -6 -6 -10 -22 -9 -25 0 -26 1 -8
9 11 5 21 9 22 9 1 1 5 -3 8 -9z"/>
<path d="M5198 7023 c7 -3 16 -2 19 1 4 3 -2 6 -13 5 -11 0 -14 -3 -6 -6z"/>
<path d="M5373 6995 c14 -30 27 -33 27 -6 0 10 -7 22 -16 25 -23 9 -23 8 -11
-19z"/>
<path d="M2541 6993 c1 -16 18 -47 18 -36 1 13 160 12 391 -3 106 -7 142 -9
385 -18 94 -4 206 -9 250 -12 44 -3 87 -6 95 -5 13 0 422 -19 520 -24 19 -1
154 -5 300 -9 146 -4 272 -10 282 -12 9 -3 19 -1 21 4 3 4 -29 9 -71 11 -76 2
-216 9 -622 30 -482 25 -819 42 -1025 51 -297 14 -398 19 -477 25 -38 3 -68 2
-67 -2z"/>
<path d="M2145 6970 c3 -5 8 -10 11 -10 2 0 4 5 4 10 0 6 -5 10 -11 10 -5 0
-7 -4 -4 -10z"/>
<path d="M0 6907 l0 -44 83 -7 c45 -4 150 -9 232 -11 83 -3 245 -8 360 -12
116 -4 221 -5 235 -3 14 2 62 4 108 4 58 1 82 5 82 14 0 6 5 12 10 12 6 0 10
-7 10 -15 0 -12 14 -14 78 -10 99 5 105 6 115 19 5 8 9 8 15 -1 8 -12 34 -14
122 -11 30 1 84 2 120 1 36 0 110 -1 166 -2 56 -1 122 -7 149 -15 29 -9 55
-12 64 -7 9 5 45 7 81 5 237 -14 449 -18 459 -9 12 12 -20 16 -210 25 -112 5
-341 17 -509 25 -168 8 -449 22 -625 30 -176 9 -403 20 -505 25 -102 5 -264
12 -360 15 -96 3 -199 8 -227 11 l-53 5 0 -44z m1040 -43 c0 -8 -4 -12 -10 -9
-5 3 -10 10 -10 16 0 5 5 9 10 9 6 0 10 -7 10 -16z m220 -8 c0 -3 -4 -8 -10
-11 -5 -3 -10 -1 -10 4 0 6 5 11 10 11 6 0 10 -2 10 -4z"/>
<path d="M4858 6873 c23 -2 59 -2 80 0 20 2 1 4 -43 4 -44 0 -61 -2 -37 -4z"/>
<path d="M2520 6795 c0 -40 22 -46 28 -7 3 22 16 29 26 14 2 -4 25 -7 50 -6
30 1 43 -2 39 -9 -4 -7 0 -7 13 -1 20 9 157 9 284 0 89 -6 332 -15 555 -22 88
-2 178 -6 200 -9 21 -3 89 -8 150 -10 378 -16 644 -25 810 -29 169 -4 177 -4
70 4 -66 5 -237 13 -380 19 -143 6 -271 13 -285 15 -14 3 -153 10 -310 16
-157 5 -348 14 -425 20 -77 5 -252 14 -390 20 -137 6 -292 13 -342 16 l-93 6
0 -37z"/>
<path d="M0 6734 c0 -32 4 -44 18 -48 9 -3 83 -6 162 -6 80 1 209 -2 288 -6
112 -5 146 -3 159 8 14 11 16 11 11 -2 -4 -12 4 -15 46 -13 28 1 108 3 178 5
98 2 128 6 128 16 0 10 5 9 17 -3 11 -12 25 -15 47 -10 70 14 106 17 106 7 0
-5 -16 -10 -36 -10 -19 0 -38 -3 -41 -6 -4 -3 38 -6 93 -6 72 0 95 3 84 11
-11 8 -7 9 18 4 21 -4 32 -3 32 5 0 6 5 8 11 4 7 -4 82 -9 168 -10 86 -2 188
-6 226 -9 39 -4 79 -6 90 -5 107 3 192 -3 216 -16 36 -18 48 -18 23 1 -19 14
-18 14 4 15 12 0 22 -6 22 -12 0 -9 3 -10 8 -2 4 6 18 10 32 8 14 -1 95 -5
180 -9 85 -3 157 -10 160 -15 3 -5 11 -1 17 10 11 17 8 19 -50 24 -34 3 -186
10 -337 16 -151 6 -401 17 -555 25 -493 25 -742 37 -1165 55 -135 6 -271 12
-302 13 l-58 3 0 -42z m780 -34 c0 -5 -7 -10 -16 -10 -8 0 -12 5 -9 10 3 6 10
10 16 10 5 0 9 -4 9 -10z m35 0 c3 -5 1 -10 -4 -10 -6 0 -11 5 -11 10 0 6 2
10 4 10 3 0 8 -4 11 -10z m405 -20 c0 -5 -11 -10 -25 -10 -14 0 -25 5 -25 10
0 6 11 10 25 10 14 0 25 -4 25 -10z"/>
<path d="M2510 6636 c0 -30 5 -32 27 -11 9 10 20 12 27 7 6 -5 29 -8 51 -7 22
2 144 -1 270 -6 127 -5 289 -11 360 -13 72 -3 229 -10 350 -16 404 -19 810
-32 785 -25 -15 4 -213 15 -625 35 -115 6 -338 17 -495 25 -157 8 -352 17
-435 20 -82 3 -187 8 -232 11 l-83 6 0 -26z"/>
<path d="M8945 6650 c-19 -8 -19 -9 3 -9 12 -1 22 4 22 9 0 6 -1 10 -2 9 -2 0
-12 -4 -23 -9z"/>
<path d="M1823 6633 c9 -2 23 -2 30 0 6 3 -1 5 -18 5 -16 0 -22 -2 -12 -5z"/>
<path d="M0 6552 l0 -50 40 -4 c22 -2 40 -1 40 3 0 3 21 3 47 -1 26 -4 59 -4
73 0 24 7 178 5 395 -4 55 -2 104 -1 110 2 5 4 22 5 36 4 15 -2 34 4 43 13 15
15 16 15 16 -9 0 -14 5 -26 11 -26 5 0 8 4 5 9 -3 5 10 11 29 13 34 4 48 -5
23 -15 -10 -4 -10 -6 0 -6 7 -1 15 6 18 14 7 18 30 20 38 3 5 -10 7 -10 12 0
7 15 31 16 36 2 2 -7 17 -5 42 5 32 14 40 14 47 3 7 -11 11 -10 19 2 7 12 12
12 22 2 14 -14 58 -16 58 -2 0 6 8 10 17 10 13 0 14 -3 5 -12 -16 -16 -15 -28
3 -28 8 0 15 6 15 14 0 7 10 16 23 18 35 7 391 -3 397 -10 3 -4 43 -7 90 -8
93 0 477 -14 580 -20 36 -2 78 -4 94 -4 19 -1 30 -7 33 -20 3 -11 9 -20 13
-20 11 0 21 43 12 51 -7 7 -204 18 -697 39 -137 6 -378 17 -535 25 -157 8
-357 17 -445 20 -88 3 -232 10 -320 15 -88 5 -224 12 -302 15 l-143 6 0 -49z"/>
<path d="M4418 6563 c12 -2 30 -2 40 0 9 3 -1 5 -23 4 -22 0 -30 -2 -17 -4z"/>
<path d="M4618 6553 c18 -2 45 -2 60 0 15 2 0 4 -33 4 -33 0 -45 -2 -27 -4z"/>
<path d="M5178 6523 c7 -3 16 -2 19 1 4 3 -2 6 -13 5 -11 0 -14 -3 -6 -6z"/>
<path d="M1497 6493 c-8 -8 25 -33 35 -26 5 2 2 11 -6 19 -16 16 -20 17 -29 7z"/>
<path d="M1430 6480 c20 -13 53 -13 45 0 -3 6 -18 10 -33 10 -21 0 -24 -2 -12
-10z"/>
<path d="M2478 6483 c6 -3 12 -13 12 -24 0 -18 2 -18 23 -4 13 8 26 13 28 11
2 -3 81 -7 174 -10 195 -7 362 -14 520 -22 61 -3 157 -7 215 -9 58 -1 152 -5
210 -9 202 -12 846 -30 840 -24 -3 3 -90 8 -195 12 -300 10 -633 25 -684 31
-25 3 -161 10 -301 15 -140 5 -347 14 -460 20 -305 15 -396 18 -382 13z"/>
<path d="M9303 6483 c15 -2 39 -2 55 0 15 2 2 4 -28 4 -30 0 -43 -2 -27 -4z"/>
<path d="M1580 6470 c-13 -8 -12 -10 3 -10 9 0 17 5 17 10 0 12 -1 12 -20 0z"/>
<path d="M2 6370 l3 -53 95 -3 c246 -10 521 -11 526 -3 3 5 14 4 26 -2 11 -6
18 -7 15 -2 -5 8 125 6 201 -4 28 -3 42 -1 42 6 0 7 9 9 24 5 20 -5 24 -2 22
13 -3 15 -12 18 -62 16 -45 -1 -52 1 -29 7 44 11 318 -1 327 -14 6 -8 8 -8 8
1 0 19 181 5 197 -16 11 -13 14 -14 22 -2 8 12 53 13 275 7 146 -3 319 -10
383 -16 65 -5 165 -10 222 -11 96 -2 104 -4 110 -23 4 -18 6 -17 11 9 l5 30
-490 22 c-269 12 -620 27 -780 32 -159 6 -304 13 -321 16 -17 3 -163 10 -325
15 -162 5 -343 12 -402 16 l-108 7 3 -53z m638 -20 c0 -14 -6 -20 -22 -19 -19
1 -19 2 -5 6 11 3 16 11 13 19 -3 8 -1 14 4 14 6 0 10 -9 10 -20z"/>
<path d="M4933 6363 c9 -2 23 -2 30 0 6 3 -1 5 -18 5 -16 0 -22 -2 -12 -5z"/>
<path d="M977 6326 c-3 -8 -2 -18 3 -21 4 -3 10 0 12 7 3 7 14 9 31 4 15 -3
25 -11 22 -16 -3 -6 0 -10 7 -10 7 0 18 8 24 18 9 14 7 17 -15 18 -14 0 -38 4
-52 8 -19 6 -28 3 -32 -8z"/>
<path d="M1115 6320 c3 -5 12 -7 20 -3 21 7 19 13 -6 13 -11 0 -18 -4 -14 -10z"/>
<path d="M2474 6305 c3 -9 6 -21 6 -27 0 -6 6 -5 16 2 15 13 135 11 757 -16
62 -2 106 0 103 5 -3 5 -108 11 -233 15 -217 6 -470 20 -597 32 -52 5 -58 3
-52 -11z"/>
<path d="M3390 6260 c20 -13 53 -13 45 0 -3 6 -18 10 -33 10 -21 0 -24 -2 -12
-10z"/>
<path d="M3538 6253 c29 -2 74 -2 100 0 26 2 2 3 -53 3 -55 0 -76 -1 -47 -3z"/>
<path d="M3808 6243 c23 -2 61 -2 85 0 23 2 4 4 -43 4 -47 0 -66 -2 -42 -4z"/>
<path d="M0 6197 c0 -42 1 -43 40 -54 22 -5 40 -7 40 -3 0 4 7 7 15 7 8 0 12
-4 9 -9 -7 -11 13 -10 37 2 10 6 19 7 19 3 0 -8 234 -18 390 -17 53 0 74 4 72
12 -1 8 6 10 20 7 13 -3 37 -6 53 -5 17 0 67 0 112 0 70 1 81 3 76 16 -4 11
-14 14 -32 11 -15 -3 -33 -1 -41 4 -10 7 59 9 215 5 343 -9 661 -21 825 -30
30 -2 152 -6 270 -10 229 -7 271 -12 282 -30 5 -6 8 -2 8 10 0 20 -7 22 -87
28 -49 3 -218 11 -378 16 -159 6 -335 12 -390 15 -55 3 -145 8 -200 10 -188 8
-570 26 -870 41 -165 8 -342 14 -392 14 l-93 0 0 -43z m227 7 c-3 -3 -12 -4
-19 -1 -8 3 -5 6 6 6 11 1 17 -2 13 -5z m506 -21 c-7 -2 -13 -11 -13 -19 0
-11 -5 -11 -27 -1 l-27 12 30 6 c36 8 53 9 37 2z m50 -20 c-7 -2 -19 -2 -25 0
-7 3 -2 5 12 5 14 0 19 -2 13 -5z"/>
<path d="M3983 6233 c26 -2 68 -2 95 0 26 2 4 3 -48 3 -52 0 -74 -1 -47 -3z"/>
<path d="M940 6160 c0 -5 5 -10 10 -10 6 0 10 5 10 10 0 6 -4 10 -10 10 -5 0
-10 -4 -10 -10z"/>
<path d="M910 6145 c0 -8 2 -15 4 -15 2 0 6 7 10 15 3 8 1 15 -4 15 -6 0 -10
-7 -10 -15z"/>
<path d="M970 6150 c0 -5 5 -10 10 -10 6 0 10 5 10 10 0 6 -4 10 -10 10 -5 0
-10 -4 -10 -10z"/>
<path d="M1012 6151 c2 -7 7 -12 11 -12 12 1 9 15 -3 20 -7 2 -11 -2 -8 -8z"/>
<path d="M2455 6131 c7 -7 109 -13 250 -17 132 -3 243 -8 247 -10 4 -2 9 -1
12 4 3 5 0 9 -7 9 -7 1 -100 4 -207 7 -107 4 -220 9 -250 12 -37 3 -51 1 -45
-5z"/>
<path d="M2993 6103 c9 -2 25 -2 35 0 9 3 1 5 -18 5 -19 0 -27 -2 -17 -5z"/>
<path d="M3111 6096 c2 -2 128 -6 279 -8 163 -3 228 -2 160 2 -123 8 -446 13
-439 6z"/>
<path d="M3708 6073 c7 -3 16 -2 19 1 4 3 -2 6 -13 5 -11 0 -14 -3 -6 -6z"/>
<path d="M3773 6073 c9 -2 23 -2 30 0 6 3 -1 5 -18 5 -16 0 -22 -2 -12 -5z"/>
<path d="M3838 6073 c6 -2 18 -2 25 0 6 3 1 5 -13 5 -14 0 -19 -2 -12 -5z"/>
<path d="M3908 6073 c7 -3 16 -2 19 1 4 3 -2 6 -13 5 -11 0 -14 -3 -6 -6z"/>
<path d="M10 6050 c8 -5 23 -10 33 -10 9 0 17 -7 17 -15 0 -8 0 -18 1 -22 0
-4 -5 -9 -12 -12 -6 -2 -9 1 -6 7 4 5 0 16 -9 23 -20 16 -34 -2 -34 -46 l0
-30 71 -3 c39 -1 86 3 104 10 27 9 39 9 57 0 25 -13 120 -13 112 0 -3 4 8 8
25 8 16 0 32 -6 34 -12 4 -10 6 -10 6 0 1 14 41 17 41 2 0 -13 139 -5 153 9
17 17 40 13 33 -4 -4 -12 -2 -13 12 -7 9 5 48 10 87 11 38 0 74 6 79 11 12 12
19 11 -92 15 -51 2 -106 6 -122 10 -22 5 -30 3 -30 -7 0 -8 -4 -7 -11 5 -6 10
-23 18 -42 18 -28 1 -26 2 12 9 24 3 64 3 90 0 25 -4 172 -11 325 -14 154 -4
282 -9 286 -11 3 -2 103 -6 223 -10 148 -4 217 -3 217 5 0 6 -56 11 -157 12
-210 3 -241 3 -428 11 -220 10 -385 19 -415 23 -14 1 -124 6 -245 9 -121 3
-267 7 -325 10 -70 3 -100 2 -90 -5z m160 -28 c0 -4 -12 -9 -27 -10 -22 -1
-24 0 -13 8 18 12 40 13 40 2z m240 -3 c49 0 68 -3 55 -9 -11 -4 -32 -5 -47
-3 -19 4 -28 1 -28 -7 0 -10 -3 -10 -15 0 -10 9 -32 11 -65 7 -41 -5 -50 -3
-50 10 0 13 7 14 38 9 20 -3 71 -6 112 -7z"/>
<path d="M1690 5980 c13 -9 309 -15 299 -6 -2 2 -74 6 -159 10 -105 4 -150 3
-140 -4z"/>
<path d="M1041 5964 c0 -11 3 -14 6 -6 3 7 2 16 -1 19 -3 4 -6 -2 -5 -13z"/>
<path d="M2184 5958 c131 -6 192 -6 199 1 8 8 -48 11 -188 9 l-200 -1 189 -9z"/>
<path d="M1185 5950 c4 -6 11 -8 16 -5 14 9 11 15 -7 15 -8 0 -12 -5 -9 -10z"/>
<path d="M2440 5946 c0 -24 14 -25 39 -5 l23 19 -31 0 c-20 0 -31 -5 -31 -14z"/>
<path d="M2528 5953 c6 -2 18 -2 25 0 6 3 1 5 -13 5 -14 0 -19 -2 -12 -5z"/>
<path d="M188 5943 c7 -3 16 -2 19 1 4 3 -2 6 -13 5 -11 0 -14 -3 -6 -6z"/>
<path d="M2768 5933 c6 -2 18 -2 25 0 6 3 1 5 -13 5 -14 0 -19 -2 -12 -5z"/>
<path d="M2835 5935 c23 -8 125 -11 113 -4 -7 5 -38 8 -68 8 -30 0 -50 -2 -45
-4z"/>
<path d="M3061 5926 c2 -2 60 -6 129 -8 78 -4 110 -3 85 3 -39 8 -223 13 -214
5z"/>
<path d="M48 5873 c6 -2 18 -2 25 0 6 3 1 5 -13 5 -14 0 -19 -2 -12 -5z"/>
<path d="M260 5859 c25 -7 307 -12 299 -5 -2 2 -76 6 -164 8 -88 3 -149 1
-135 -3z"/>
<path d="M578 5853 c6 -2 18 -2 25 0 6 3 1 5 -13 5 -14 0 -19 -2 -12 -5z"/>
<path d="M638 5843 c6 -2 18 -2 25 0 6 3 1 5 -13 5 -14 0 -19 -2 -12 -5z"/>
<path d="M823 5843 c15 -2 39 -2 55 0 15 2 2 4 -28 4 -30 0 -43 -2 -27 -4z"/>
<path d="M0 5801 l0 -36 133 -2 c72 -1 158 -4 190 -7 46 -5 57 -3 57 9 0 19
16 19 24 0 3 -8 10 -15 15 -15 6 0 8 7 5 15 -5 11 1 15 24 15 17 0 32 -5 34
-11 2 -7 11 -7 30 1 19 9 35 10 57 2 22 -8 31 -7 34 1 3 9 9 9 25 0 18 -11 20
-10 16 2 -4 9 0 15 10 15 9 0 16 -8 16 -17 0 -13 3 -14 12 -5 18 18 -17 39
-71 41 -25 1 -93 5 -151 10 -68 6 -109 5 -117 -1 -9 -7 -17 -7 -27 1 -7 6 -21
9 -29 5 -9 -3 -21 -3 -27 1 -5 3 -66 8 -135 9 l-125 4 0 -37z"/>
<path d="M978 5833 c12 -2 32 -2 45 0 12 2 2 4 -23 4 -25 0 -35 -2 -22 -4z"/>
<path d="M700 5812 c0 -12 19 -26 26 -19 2 2 -2 10 -11 17 -9 8 -15 8 -15 2z"/>
<path d="M1753 5803 c9 -2 23 -2 30 0 6 3 -1 5 -18 5 -16 0 -22 -2 -12 -5z"/>
<path d="M801 5774 c0 -11 3 -14 6 -6 3 7 2 16 -1 19 -3 4 -6 -2 -5 -13z"/>
<path d="M2420 5770 c0 -5 7 -7 15 -4 8 4 15 8 15 10 0 2 -7 4 -15 4 -8 0 -15
-4 -15 -10z"/>
<path d="M2653 5763 c9 -2 23 -2 30 0 6 3 -1 5 -18 5 -16 0 -22 -2 -12 -5z"/>
<path d="M2733 5763 c9 -2 23 -2 30 0 6 3 -1 5 -18 5 -16 0 -22 -2 -12 -5z"/>
<path d="M10 5641 c0 -4 12 -20 26 -35 24 -24 25 -26 7 -26 -11 0 -25 10 -31
23 -10 22 -11 22 -11 -5 -1 -27 1 -28 52 -28 28 0 109 -3 178 -6 111 -6 127
-5 132 10 4 9 14 16 24 16 15 0 15 -2 -3 -15 -18 -13 -17 -14 18 -15 29 0 38
5 43 21 5 14 10 18 17 11 7 -7 16 -5 29 6 10 9 19 19 19 22 0 5 -62 6 -280 8
-170 1 -184 2 -194 12 -12 12 -26 13 -26 1z m319 -52 c3 -11 1 -12 -11 -2 -8
7 -19 9 -23 5 -5 -4 -5 -1 -1 6 9 16 28 11 35 -9z m-149 7 c0 -3 -4 -8 -10
-11 -5 -3 -10 -1 -10 4 0 6 5 11 10 11 6 0 10 -2 10 -4z m63 -13 c-7 -2 -19
-2 -25 0 -7 3 -2 5 12 5 14 0 19 -2 13 -5z"/>
<path d="M529 5606 c-14 -6 -24 -16 -22 -23 2 -6 -6 -13 -19 -16 -15 -3 -10
-5 14 -6 31 -1 36 2 31 15 -5 14 -2 16 23 10 16 -4 24 -3 18 1 -6 4 -13 13
-15 19 -3 8 -11 8 -30 0z"/>
<path d="M610 5607 c-22 -9 -23 -11 -6 -14 10 -3 23 0 29 6 16 16 5 20 -23 8z"/>
<path d="M655 5610 c-3 -5 3 -10 14 -10 10 0 28 -3 38 -7 16 -6 16 -5 4 10
-15 19 -46 23 -56 7z"/>
<path d="M610 5570 c0 -5 7 -10 15 -10 8 0 15 5 15 10 0 6 -7 10 -15 10 -8 0
-15 -4 -15 -10z"/>
<path d="M148 5442 c11 -7 11 -10 -2 -15 -8 -3 -18 -2 -20 2 -3 4 -33 9 -66 9
-46 1 -60 -2 -60 -14 0 -10 12 -14 40 -14 22 0 40 -4 40 -9 0 -6 -15 -7 -34
-4 -19 3 -36 1 -40 -6 -5 -8 32 -11 129 -11 84 0 134 4 130 10 -3 5 -12 7 -20
4 -16 -6 -68 30 -58 40 3 3 1 6 -5 6 -5 0 -19 3 -29 6 -13 4 -14 3 -5 -4z m27
-42 c15 -6 6 -9 -32 -9 -29 -1 -53 4 -53 9 0 12 57 12 85 0z"/>
<path d="M223 5420 c-2 -24 12 -27 21 -4 8 22 8 24 -7 24 -7 0 -13 -9 -14 -20z"/>
<path d="M546 5424 c-3 -8 -10 -13 -16 -9 -14 8 -159 12 -195 5 -20 -4 14 -11
102 -20 139 -14 183 -8 183 25 0 21 -66 21 -74 -1z"/>
<path d="M265 5420 c-3 -5 -1 -10 4 -10 6 0 11 5 11 10 0 6 -2 10 -4 10 -3 0
-8 -4 -11 -10z"/>
<path d="M280 5382 c0 -4 27 -8 60 -9 34 -1 60 2 60 7 0 6 -27 10 -60 10 -33
0 -60 -3 -60 -8z"/>
<path d="M978 5353 c7 -3 16 -2 19 1 4 3 -2 6 -13 5 -11 0 -14 -3 -6 -6z"/>
<path d="M8561 5254 c0 -11 3 -14 6 -6 3 7 2 16 -1 19 -3 4 -6 -2 -5 -13z"/>
<path d="M178 5233 c7 -3 16 -2 19 1 4 3 -2 6 -13 5 -11 0 -14 -3 -6 -6z"/>
<path d="M368 5213 c7 -3 16 -2 19 1 4 3 -2 6 -13 5 -11 0 -14 -3 -6 -6z"/>
<path d="M392 5205 c-11 -13 -9 -15 12 -15 13 0 31 -3 40 -6 9 -3 16 -1 16 5
0 6 -9 11 -20 11 -11 0 -20 5 -20 10 0 14 -13 12 -28 -5z"/>
<path d="M25 5199 c-21 -4 -9 -7 38 -7 37 0 67 2 65 4 -8 7 -75 10 -103 3z"/>
<path d="M178 5193 c12 -2 32 -2 45 0 12 2 2 4 -23 4 -25 0 -35 -2 -22 -4z"/>
<path d="M258 5193 c6 -2 18 -2 25 0 6 3 1 5 -13 5 -14 0 -19 -2 -12 -5z"/>
<path d="M313 5193 c9 -2 23 -2 30 0 6 3 -1 5 -18 5 -16 0 -22 -2 -12 -5z"/>
<path d="M8720 5010 c0 -5 5 -10 10 -10 6 0 10 5 10 10 0 6 -4 10 -10 10 -5 0
-10 -4 -10 -10z"/>
<path d="M283 5003 c9 -2 23 -2 30 0 6 3 -1 5 -18 5 -16 0 -22 -2 -12 -5z"/>
<path d="M8745 4970 c-3 -5 1 -10 9 -10 9 0 16 5 16 10 0 6 -4 10 -9 10 -6 0
-13 -4 -16 -10z"/>
<path d="M9069 4138 c-5 -16 -3 -58 3 -58 4 0 8 6 8 14 0 8 3 21 6 30 3 9 1
16 -5 16 -6 0 -11 -1 -12 -2z"/>
<path d="M8890 4040 c19 -13 30 -13 30 0 0 6 -10 10 -22 10 -19 0 -20 -2 -8
-10z"/>
<path d="M8915 3979 c-10 -15 3 -25 16 -12 7 7 7 13 1 17 -6 3 -14 1 -17 -5z"/>
<path d="M9361 3803 c-1 -12 4 -25 9 -28 6 -4 7 -11 4 -17 -4 -7 -2 -8 4 -4 8
5 9 13 3 24 -4 9 -11 24 -14 32 -4 10 -6 8 -6 -7z"/>
<path d="M9080 3749 c0 -5 5 -7 10 -4 6 3 10 8 10 11 0 2 -4 4 -10 4 -5 0 -10
-5 -10 -11z"/>
<path d="M9065 3710 c4 -6 11 -8 16 -5 14 9 11 15 -7 15 -8 0 -12 -5 -9 -10z"/>
<path d="M5680 3586 c0 -8 -10 -17 -22 -19 -20 -4 -19 -4 5 -6 21 -1 27 4 27
19 0 11 -2 20 -5 20 -3 0 -5 -6 -5 -14z"/>
<path d="M9490 3530 c0 -5 5 -10 11 -10 5 0 7 5 4 10 -3 6 -8 10 -11 10 -2 0
-4 -4 -4 -10z"/>
<path d="M345 3259 c-10 -15 1 -23 20 -15 9 3 13 10 10 16 -8 13 -22 13 -30
-1z"/>
<path d="M1480 3231 c0 -28 14 -41 44 -40 20 1 24 3 11 6 -11 2 -27 6 -35 9
-28 10 13 24 50 18 37 -7 65 -24 40 -24 -8 0 0 -9 19 -21 24 -14 37 -17 44
-10 6 6 24 11 40 11 17 0 35 8 43 18 7 9 18 17 25 17 7 0 14 6 17 13 3 9 -31
12 -147 12 -85 0 -151 -4 -151 -9z"/>
<path d="M5465 3139 c-11 -17 0 -20 21 -4 17 13 17 14 2 15 -9 0 -20 -5 -23
-11z"/>
<path d="M1664 3113 c1 -16 -9 -18 -76 -18 -42 0 -80 -3 -84 -7 -4 -5 36 -8
89 -8 105 0 152 -11 143 -35 -9 -24 36 -48 68 -35 23 8 27 15 24 42 -2 18 -9
34 -15 34 -7 1 -36 2 -64 3 -42 1 -52 5 -56 21 -7 25 -31 27 -29 3z"/>
<path d="M9720 3081 c0 -6 4 -13 10 -16 6 -3 7 1 4 9 -7 18 -14 21 -14 7z"/>
<path d="M1968 3033 c6 -2 18 -2 25 0 6 3 1 5 -13 5 -14 0 -19 -2 -12 -5z"/>
<path d="M55 3020 c33 -5 203 -13 379 -19 381 -13 809 -28 1116 -41 123 -5
226 -7 229 -5 16 17 39 15 -899 46 -195 6 -380 13 -410 14 -170 9 -468 12
-415 5z"/>
<path d="M2120 3010 c0 -5 11 -10 25 -10 14 0 25 5 25 10 0 6 -11 10 -25 10
-14 0 -25 -4 -25 -10z"/>
<path d="M5435 3010 c-3 -6 -3 -20 0 -31 6 -19 9 -20 22 -6 9 9 13 23 10 31
-7 18 -23 21 -32 6z"/>
<path d="M1800 2961 c0 -6 10 -11 23 -11 13 0 28 -5 34 -11 6 -6 37 -12 69
-14 33 -1 50 0 40 2 -11 3 -26 11 -34 19 -7 8 -26 14 -41 14 -16 0 -43 3 -60
6 -20 4 -31 3 -31 -5z"/>
<path d="M5380 2930 c0 -5 -6 -10 -14 -10 -16 0 -31 -18 -23 -26 12 -12 57 9
57 27 0 10 -4 19 -10 19 -5 0 -10 -4 -10 -10z"/>
<path d="M9800 2933 c0 -13 29 -38 35 -31 3 3 -4 13 -15 23 -11 10 -20 13 -20
8z"/>
<path d="M9115 2920 c-3 -4 2 -13 10 -20 8 -7 15 -19 15 -27 0 -13 3 -13 15
-3 8 7 15 18 15 24 0 14 -48 37 -55 26z"/>
<path d="M9100 2850 c0 -5 4 -10 9 -10 6 0 13 5 16 10 3 6 -1 10 -9 10 -9 0
-16 -4 -16 -10z"/>
<path d="M10055 2590 c3 -5 11 -10 16 -10 6 0 7 5 4 10 -3 6 -11 10 -16 10 -6
0 -7 -4 -4 -10z"/>
<path d="M10240 2520 c0 -5 19 -10 42 -10 49 0 47 5 -4 14 -24 4 -38 3 -38 -4z"/>
<path d="M10560 2300 c0 -5 7 -10 16 -10 8 0 12 5 9 10 -3 6 -10 10 -16 10 -5
0 -9 -4 -9 -10z"/>
<path d="M9249 2288 c0 -2 -1 -22 -3 -46 l-2 -43 45 7 c58 8 72 17 42 24 -13
3 -29 14 -35 25 -14 26 -44 46 -47 33z"/>
<path d="M10615 2260 c-3 -5 -1 -10 4 -10 6 0 11 5 11 10 0 6 -2 10 -4 10 -3
0 -8 -4 -11 -10z"/>
<path d="M5314 2252 c-6 -4 -13 -17 -16 -29 -5 -18 -2 -23 13 -23 14 0 19 7
19 30 0 33 0 33 -16 22z"/>
<path d="M5248 2203 c7 -3 16 -2 19 1 4 3 -2 6 -13 5 -11 0 -14 -3 -6 -6z"/>
<path d="M10827 2183 c-4 -3 -7 -11 -7 -17 0 -6 5 -5 12 2 6 6 9 14 7 17 -3 3
-9 2 -12 -2z"/>
<path d="M5522 2148 c-7 -7 -12 -18 -12 -26 0 -10 -7 -13 -21 -9 -13 4 -28 -2
-41 -15 -26 -26 -21 -29 27 -18 31 7 49 5 84 -11 52 -23 65 -24 81 -4 10 12 9
15 -8 15 -36 0 -52 11 -52 36 0 18 5 24 23 24 18 0 19 2 7 10 -21 14 -74 12
-88 -2z"/>
<path d="M5275 2100 c3 -5 8 -10 11 -10 2 0 4 5 4 10 0 6 -5 10 -11 10 -5 0
-7 -4 -4 -10z"/>
<path d="M5322 2083 c-22 -4 -23 -5 -5 -18 15 -12 16 -17 6 -34 -18 -29 -17
-31 17 -31 23 0 30 5 30 19 0 10 9 30 21 45 l20 26 -33 -1 c-18 -1 -43 -4 -56
-6z"/>
<path d="M10988 2073 c7 -3 16 -2 19 1 4 3 -2 6 -13 5 -11 0 -14 -3 -6 -6z"/>
<path d="M11041 2034 c0 -11 3 -14 6 -6 3 7 2 16 -1 19 -3 4 -6 -2 -5 -13z"/>
<path d="M5482 2007 c-15 -17 1 -39 21 -31 10 3 17 1 17 -6 0 -7 13 -10 33 -8
44 4 41 27 -8 44 -49 17 -50 17 -63 1z"/>
<path d="M11281 1904 c0 -11 3 -14 6 -6 3 7 2 16 -1 19 -3 4 -6 -2 -5 -13z"/>
<path d="M9407 1713 c-12 -11 -8 -23 8 -23 8 0 15 7 15 15 0 16 -12 20 -23 8z"/>
<path d="M11595 1710 c3 -5 8 -10 11 -10 2 0 4 5 4 10 0 6 -5 10 -11 10 -5 0
-7 -4 -4 -10z"/>
<path d="M11600 1666 c0 -9 5 -16 10 -16 6 0 10 4 10 9 0 6 -4 13 -10 16 -5 3
-10 -1 -10 -9z"/>
<path d="M11852 1507 c-9 -11 -10 -17 -2 -22 15 -9 23 -1 18 21 -3 15 -4 16
-16 1z"/>
<path d="M11935 1500 c-3 -5 -1 -10 4 -10 6 0 11 5 11 10 0 6 -2 10 -4 10 -3
0 -8 -4 -11 -10z"/>
<path d="M12076 1375 c-3 -8 -1 -15 4 -15 6 0 10 7 10 15 0 8 -2 15 -4 15 -2
0 -6 -7 -10 -15z"/>
<path d="M12206 1343 c-10 -10 7 -33 35 -47 26 -13 29 -13 29 2 0 17 -54 55
-64 45z"/>
<path d="M12355 1280 c-3 -6 1 -7 9 -4 18 7 21 14 7 14 -6 0 -13 -4 -16 -10z"/>
<path d="M12357 1236 c-3 -8 -2 -18 3 -21 13 -8 24 15 12 27 -6 6 -11 4 -15
-6z"/>
<path d="M12735 1100 c-3 -5 -1 -10 4 -10 6 0 11 5 11 10 0 6 -2 10 -4 10 -3
0 -8 -4 -11 -10z"/>
<path d="M12745 1050 c4 -6 11 -8 16 -5 14 9 11 15 -7 15 -8 0 -12 -5 -9 -10z"/>
<path d="M12840 1000 c0 -5 5 -10 10 -10 6 0 10 5 10 10 0 6 -4 10 -10 10 -5
0 -10 -4 -10 -10z"/>
<path d="M13036 944 c-9 -22 -8 -24 9 -17 9 3 26 -3 38 -13 22 -19 22 -19 5 2
-10 11 -18 26 -18 32 0 18 -27 14 -34 -4z"/>
<path d="M791 434 c0 -11 3 -14 6 -6 3 7 2 16 -1 19 -3 4 -6 -2 -5 -13z"/>
<path d="M520 365 c-11 -13 -10 -14 4 -9 9 3 16 10 16 15 0 13 -6 11 -20 -6z"/>
<path d="M478 313 c-29 -18 -45 -43 -28 -43 6 0 10 5 10 10 0 6 5 10 10 10 6
0 19 9 30 20 24 24 15 25 -22 3z"/>
<path d="M748 318 c9 -9 15 -9 24 0 9 9 7 12 -12 12 -19 0 -21 -3 -12 -12z"/>
<path d="M590 275 c0 -8 5 -15 10 -15 6 0 10 7 10 15 0 8 -4 15 -10 15 -5 0
-10 -7 -10 -15z"/>
<path d="M430 250 c8 -5 20 -10 25 -10 6 0 3 5 -5 10 -8 5 -19 10 -25 10 -5 0
-3 -5 5 -10z"/>
<path d="M570 240 c0 -5 5 -10 10 -10 6 0 10 5 10 10 0 6 -4 10 -10 10 -5 0
-10 -4 -10 -10z"/>
<path d="M295 230 c-3 -5 3 -10 14 -10 11 0 23 5 26 10 3 6 -3 10 -14 10 -11
0 -23 -4 -26 -10z"/>
<path d="M545 230 c3 -5 8 -10 11 -10 2 0 4 5 4 10 0 6 -5 10 -11 10 -5 0 -7
-4 -4 -10z"/>
<path d="M215 200 c-18 -8 -17 -9 7 -9 15 -1 30 4 33 9 7 12 -12 12 -40 0z"/>
<path d="M13915 190 c-3 -5 -1 -10 4 -10 6 0 11 5 11 10 0 6 -2 10 -4 10 -3 0
-8 -4 -11 -10z"/>
<path d="M360 145 c0 -8 5 -15 10 -15 6 0 10 7 10 15 0 8 -4 15 -10 15 -5 0
-10 -7 -10 -15z"/>
<path d="M13942 131 c2 -7 7 -12 11 -12 12 1 9 15 -3 20 -7 2 -11 -2 -8 -8z"/>
<path d="M140 70 c10 -18 8 -20 -17 -20 -23 -1 -25 -2 -11 -10 18 -11 68 3 68
18 0 13 -23 32 -37 32 -11 0 -11 -5 -3 -20z"/>
<path d="M14150 20 c0 -5 5 -10 10 -10 6 0 10 5 10 10 0 6 -4 10 -10 10 -5 0
-10 -4 -10 -10z"/>
</g>
</svg>
